<svg xmlns="http://www.w3.org/2000/svg" xmlns:xlink="http://www.w3.org/1999/xlink" id="logo_final" width="2748.37" height="1323.39" viewBox="0 0 2748.37 1323.39"><defs><style>      .cls-1 {        fill: #fff;      }      .cls-2 {        fill: url(#Dégradé_sans_nom_71);      }    </style><linearGradient id="D&#xE9;grad&#xE9;_sans_nom_71" data-name="D&#xE9;grad&#xE9; sans nom 71" x1="0" y1="661.69" x2="1323.39" y2="661.69" gradientUnits="userSpaceOnUse"><stop offset="0" stop-color="#4f964e"></stop><stop offset="1" stop-color="#5e9f5d"></stop></linearGradient></defs><g><path class="cls-1" d="M351.83,873.88v-69.47h6.08c5.21,0,9.42-4.22,9.42-9.42s-4.22-9.42-9.42-9.42h-6.08v-55.02h6.08c5.21,0,9.42-4.22,9.42-9.42s-4.15-9.35-9.3-9.42c3.1-3.89,8.01-11.7,7.96-22.25-.07-11.58-6.09-19.62-7.93-22.08-5.59-7.46-9.73-6.89-16.14-13.92-5.96-6.53-8.93-14.19-10.48-19.36-1.55,5.17-4.52,12.83-10.48,19.36-6.41,7.03-10.55,6.47-16.14,13.92-1.84,2.46-7.86,10.49-7.93,22.08-.06,10.55,4.86,18.36,7.96,22.25-5.15.07-9.3,4.26-9.3,9.42s4.22,9.42,9.42,9.42h6.08v55.02h-6.08c-5.2,0-9.42,4.22-9.42,9.42s4.22,9.42,9.42,9.42h6.08v17.67c3.68,5.51,7.46,10.97,11.31,16.38v-7.59c0-4.61,4.06-8.35,9.08-8.35s9.08,3.74,9.08,8.35v30.37h-1.23c17.67,22.77,36.87,44.58,57.58,65.29,21.07,21.07,43.28,40.58,66.48,58.5,6.64-7.3,10.61-15.35,12.96-21.2,2.57,6.4,7.07,15.43,14.9,23.23,8.31,8.28,12.48,7.31,19.12,15.65,1.91,2.4,8.45,10.62,10.14,21.97,64.1,39.8,134.18,68.49,207.82,85.07v-70.94l6.2-6.73c-3.04-3.96-8.5-12.26-9.74-24.08-2.2-20.89,10.45-36.79,13.58-40.72,8.71-10.94,14.19-9.67,25.09-20.54,10.27-10.24,16.17-22.09,19.55-30.49,3.38,8.39,9.28,20.25,19.55,30.49,10.9,10.87,16.38,9.59,25.09,20.54,3.13,3.93,15.78,19.82,13.58,40.72-1.25,11.82-6.7,20.12-9.74,24.08,2.07,2.24,4.13,4.48,6.2,6.73v86.41c13.9.84,27.89,1.26,41.93,1.26,57.54,0,114-7.08,168.38-20.82v-48.46c1.57-1.71,3.15-3.42,4.72-5.12-2.32-3.01-6.47-9.34-7.42-18.34-1.68-15.92,7.96-28.03,10.35-31.02,6.64-8.34,10.81-7.37,19.12-15.65,7.83-7.8,12.32-16.83,14.9-23.23,2.57,6.4,7.07,15.43,14.9,23.23,8.31,8.28,12.48,7.31,19.12,15.65,2.38,2.99,12.02,15.1,10.35,31.02-.95,9-5.11,15.33-7.42,18.34,1.57,1.71,3.15,3.42,4.72,5.12v21.57c43.19-17.11,84.58-38.67,123.6-64.46v-209.89h6.08c5.21,0,9.42-4.22,9.42-9.42s-4.22-9.42-9.42-9.42h-6.08v-55.02h6.08c5.21,0,9.42-4.22,9.42-9.42s-4.15-9.35-9.3-9.42c3.1-3.89,8.01-11.7,7.96-22.25-.07-11.58-6.09-19.62-7.93-22.08-5.59-7.46-9.73-6.89-16.14-13.92-5.96-6.53-8.93-14.19-10.48-19.36-1.55,5.17-4.52,12.83-10.48,19.36-6.41,7.03-10.55,6.47-16.14,13.92-1.84,2.46-7.86,10.49-7.93,22.08-.06,10.55,4.86,18.36,7.96,22.25-5.15.07-9.3,4.26-9.3,9.42s4.22,9.42,9.42,9.42h6.08v55.02h-6.08c-5.2,0-9.42,4.22-9.42,9.42s4.22,9.42,9.42,9.42h6.08v69.47c-4.82-7.73-11.41-14.24-19.21-18.95-8.75-45.08-45.74-80.08-91.82-85.85v-6.58c0-6.83-5.09-12.46-11.69-13.32l-.25-6.97c2.07-.44,3.63-2.28,3.63-4.48,0-2.31-1.72-4.21-3.95-4.52l-1.2-33.8-1.2,33.8c-2.23.31-3.95,2.21-3.95,4.52s1.56,4.04,3.63,4.48l-.25,6.97c-6.59.86-11.69,6.49-11.69,13.32v6.58c-46.08,5.77-83.07,40.77-91.82,85.85-7.78,4.69-14.35,11.17-19.16,18.87v-103.01c0-21.22-11.49-39.75-28.59-49.73-9.6-71.38-67.78-127.36-140.18-133.59v-6.5c0-6.79-5.04-12.4-11.59-13.31l-.31-13.28c2.05-.46,3.59-2.28,3.59-4.47s-1.64-4.13-3.8-4.51l-1.35-57.87-1.35,57.87c-2.16.37-3.8,2.24-3.8,4.51s1.54,4.01,3.59,4.47l-.31,13.28c-6.54.91-11.59,6.51-11.59,13.31v6.5c-72.4,6.22-130.58,62.2-140.18,133.59-17.09,9.98-28.59,28.51-28.59,49.73v103.01c-4.81-7.7-11.38-14.18-19.16-18.87-8.75-45.08-45.74-80.08-91.82-85.85v-6.58c0-6.83-5.09-12.46-11.69-13.32l-.25-6.97c2.07-.44,3.63-2.28,3.63-4.48,0-2.31-1.72-4.21-3.95-4.52l-1.2-33.8-1.2,33.8c-2.23.31-3.95,2.21-3.95,4.52s1.56,4.04,3.63,4.48l-.25,6.97c-6.59.86-11.69,6.49-11.69,13.32v6.58c-46.08,5.77-83.07,40.77-91.82,85.85-7.81,4.71-14.4,11.22-19.21,18.95ZM340.52,777.69h-18.16v-30.37c0-4.61,4.06-8.35,9.08-8.35s9.08,3.74,9.08,8.35v30.37ZM1225.41,747.32c0-4.61,4.06-8.35,9.08-8.35s9.08,3.74,9.08,8.35v30.37h-18.16v-30.37ZM1225.41,830.87c0-4.61,4.06-8.35,9.08-8.35s9.08,3.74,9.08,8.35v30.37h-18.16v-30.37ZM1119.25,869.99c0-7.65,6.74-13.84,15.05-13.84s15.05,6.2,15.05,13.84v50.33h-30.1v-50.33ZM1029.89,869.99c0-7.65,6.74-13.84,15.05-13.84s15.05,6.2,15.05,13.84v50.33h-30.1v-50.33ZM853.79,774.04c0-11.49,10.13-20.8,22.62-20.8s22.62,9.31,22.62,20.8v75.65h-45.23v-75.65ZM760.35,774.04c0-11.49,10.13-20.8,22.62-20.8s22.62,9.31,22.62,20.8v75.65h-45.23v-75.65ZM666.9,774.04c0-11.49,10.13-20.8,22.62-20.8s22.62,9.31,22.62,20.8v75.65h-45.23v-75.65ZM505.94,869.99c0-7.65,6.74-13.84,15.05-13.84s15.05,6.2,15.05,13.84v50.33h-30.1v-50.33ZM416.58,869.99c0-7.65,6.74-13.84,15.05-13.84s15.05,6.2,15.05,13.84v50.33h-30.1v-50.33Z"></path><path class="cls-2" d="M707.35,1323.39c-91.89,0-181.46-17.42-266.2-51.79-87.71-35.57-166.43-87.85-233.97-155.39s-119.82-146.26-155.39-233.97C17.42,797.5,0,707.93,0,616.04s17.42-181.46,51.79-266.2c35.57-87.71,87.85-166.43,155.39-233.97C252.88,70.17,303.87,31.36,359.33,0c-112.88,125.45-174.64,286-174.64,456.04,0,182.34,71.01,353.78,199.95,482.71,128.94,128.94,300.37,199.95,482.71,199.95,170.04,0,330.59-61.75,456.04-174.64-31.36,55.46-70.17,106.45-115.87,152.15-67.54,67.54-146.26,119.82-233.97,155.39-84.75,34.37-174.31,51.79-266.2,51.79Z"></path></g><text></text><g><g><path class="cls-1" d="M429.33,339.21l1.69-.27c4.06-.63,7.79-4.67,11.08-12,12.68-28.72,29.14-67.14,37.34-88.24l.49-1.28h2.95l.53,1.18c13.92,31.12,22.34,48.97,41.14,88.44,3.79,8,6.04,10.84,11.86,11.91l1.64.3v4.69l-2.18-.19c-4.53-.4-13.35-.83-19.7-.83s-15.96.29-22.66.83l-2.16.18v-4.82l1.8-.18c4.08-.4,6.71-1.53,7.83-3.35.97-1.57.88-3.86-.26-6.82-1.17-3.2-2.69-6.78-4.31-10.56l-1.05-2.47c-7.18-.17-13.25-.25-18.54-.25-6.33,0-12.42.12-17.23.35-.74,1.91-1.47,3.82-2.19,5.73-.88,2.31-1.75,4.62-2.66,6.93-1.32,3.53-1.52,6.09-.6,7.59.91,1.48,3.25,2.44,6.94,2.85l1.78.2v4.82l-2.18-.2c-2.75-.25-9.69-.83-14.94-.83-4.36,0-9.01.27-14.21.83l-2.21.24v-4.78ZM464.02,304.77c3.39.18,8.56.4,12.67.4,3.38,0,7.95-.14,13.94-.42-4.73-10.72-9.9-21.69-14.24-30.86-4.04,9.81-8.29,20.42-12.38,30.88Z"></path><path class="cls-1" d="M430.33,340.06l.85-.13c4.41-.69,8.4-4.92,11.84-12.58,12.68-28.72,29.15-67.17,37.36-88.29l.25-.64h1.61l.26.59c13.94,31.16,22.36,49.01,41.15,88.46,3.89,8.21,6.37,11.33,12.58,12.47l.82.15v2.76l-1.09-.1c-4.56-.4-13.42-.84-19.79-.84s-16.01.29-22.74.84l-1.08.09v-2.83l.9-.09c4.4-.43,7.29-1.72,8.59-3.82,1.14-1.85,1.08-4.44-.18-7.71-1.18-3.21-2.71-6.81-4.33-10.62-.42-.99-.85-2-1.29-3.04-7.46-.18-13.75-.26-19.21-.26-6.67,0-13,.14-17.92.38-.83,2.12-1.63,4.23-2.43,6.34-.87,2.31-1.75,4.61-2.65,6.92-1.45,3.9-1.62,6.68-.52,8.48,1.1,1.78,3.61,2.87,7.68,3.32l.89.1v2.83l-1.09-.1c-2.76-.25-9.76-.84-15.03-.84-4.39,0-9.07.27-14.31.83l-1.11.12v-2.81ZM462.59,305.7c3.38.19,9.42.48,14.11.48s10.77-.26,15.44-.49c-5.22-11.9-11.06-24.25-15.8-34.26-4.46,10.8-9.18,22.57-13.75,34.27Z"></path><path class="cls-1" d="M430.33,340.06l.85-.13c4.41-.69,8.4-4.92,11.84-12.58,12.68-28.72,29.15-67.17,37.36-88.29l.25-.64h1.61l.26.59c13.94,31.16,22.36,49.01,41.15,88.46,3.89,8.21,6.37,11.33,12.58,12.47l.82.15v2.76l-1.09-.1c-4.56-.4-13.42-.84-19.79-.84s-16.01.29-22.74.84l-1.08.09v-2.83l.9-.09c4.4-.43,7.29-1.72,8.59-3.82,1.14-1.85,1.08-4.44-.18-7.71-1.18-3.21-2.71-6.81-4.33-10.62-.42-.99-.85-2-1.29-3.04-7.46-.18-13.75-.26-19.21-.26-6.67,0-13,.14-17.92.38-.83,2.12-1.63,4.23-2.43,6.34-.87,2.31-1.75,4.61-2.65,6.92-1.45,3.9-1.62,6.68-.52,8.48,1.1,1.78,3.61,2.87,7.68,3.32l.89.1v2.83l-1.09-.1c-2.76-.25-9.76-.84-15.03-.84-4.39,0-9.07.27-14.31.83l-1.11.12v-2.81ZM462.59,305.7c3.38.19,9.42.48,14.11.48s10.77-.26,15.44-.49c-5.22-11.9-11.06-24.25-15.8-34.26-4.46,10.8-9.18,22.57-13.75,34.27Z"></path><path class="cls-1" d="M536.05,340.92v.84c-4.76-.42-13.72-.84-19.88-.84s-15.96.28-22.82.84v-.84c8.54-.84,12.32-4.9,9.24-12.88-1.54-4.2-3.64-8.96-5.88-14.28-5.74-.14-13.02-.28-19.88-.28s-13.44.14-18.62.42c-1.82,4.62-3.5,9.24-5.32,13.86-3.08,8.26-.84,12.18,7.98,13.16v.84c-4.62-.42-10.64-.84-15.12-.84-5.46,0-10.5.42-14.42.84v-.84c4.48-.7,8.82-4.76,12.6-13.16,11.62-26.32,28.84-66.36,37.38-88.34h.28c14.28,31.92,22.82,49.98,41.16,88.48,3.78,7.98,6.44,11.76,13.3,13.02ZM493.63,306.62c-5.74-13.16-12.46-27.3-17.36-37.66-4.76,11.48-9.94,24.36-15.12,37.66,4.76.28,10.92.56,15.54.56,4.9,0,11.34-.28,16.94-.56Z"></path><path class="cls-1" d="M569.79,345.16c-9.75,0-18.54-2.92-26.13-8.67l-.88-.67.1-1.1c.62-7.01.62-12.67,0-18.37l-.24-2.22h4.72l.31,1.62c2.3,11.86,10.65,19.52,21.28,19.52,7.08,0,15.36-3.51,15.36-13.4s-8.7-16.96-17.91-24.48c-10.74-8.77-21.85-17.84-21.85-32.64,0-18.79,16.75-27.2,33.36-27.2,7.81,0,14.48,1.79,20.38,5.48l1.06.66-.13,1.25c-.52,4.8-.83,12.04-.02,16.66l.42,2.35h-4.88l-.31-1.62c-1.86-9.74-7.32-14.89-15.81-14.89-9.79,0-13.26,6.09-13.26,11.3,0,8.05,8.06,14.5,16.6,21.32,10.92,8.74,23.3,18.64,23.3,34.82,0,17.55-14.91,30.28-35.46,30.28Z"></path><path class="cls-1" d="M569.79,344.16c-9.52,0-18.11-2.85-25.52-8.46l-.44-.33.05-.55c.63-7.07.63-12.8,0-18.56l-.12-1.11h2.78l.16.81c2.39,12.35,11.13,20.33,22.26,20.33,7.55,0,16.36-3.77,16.36-14.4s-8.88-17.58-18.28-25.25c-10.56-8.62-21.48-17.54-21.48-31.87,0-18.1,16.25-26.2,32.36-26.2,7.62,0,14.11,1.74,19.85,5.33l.53.33-.07.62c-.53,4.86-.84,12.21,0,16.94l.21,1.17h-2.86l-.16-.81c-1.96-10.28-7.77-15.71-16.8-15.71-10.53,0-14.26,6.63-14.26,12.3,0,8.53,8.24,15.12,16.97,22.1,10.75,8.59,22.93,18.34,22.93,34.04,0,16.97-14.49,29.28-34.46,29.28Z"></path><path class="cls-1" d="M569.79,344.16c-9.52,0-18.11-2.85-25.52-8.46l-.44-.33.05-.55c.63-7.07.63-12.8,0-18.56l-.12-1.11h2.78l.16.81c2.39,12.35,11.13,20.33,22.26,20.33,7.55,0,16.36-3.77,16.36-14.4s-8.88-17.58-18.28-25.25c-10.56-8.62-21.48-17.54-21.48-31.87,0-18.1,16.25-26.2,32.36-26.2,7.62,0,14.11,1.74,19.85,5.33l.53.33-.07.62c-.53,4.86-.84,12.21,0,16.94l.21,1.17h-2.86l-.16-.81c-1.96-10.28-7.77-15.71-16.8-15.71-10.53,0-14.26,6.63-14.26,12.3,0,8.53,8.24,15.12,16.97,22.1,10.75,8.59,22.93,18.34,22.93,34.04,0,16.97-14.49,29.28-34.46,29.28Z"></path><path class="cls-1" d="M544.87,334.9c.56-6.3.7-12.32,0-18.76h.84c2.66,13.72,12.32,21.14,23.24,21.14,9.52,0,17.36-5.32,17.36-15.4,0-22.54-39.76-30.52-39.76-57.12,0-17.22,15.54-25.2,31.36-25.2,8.68,0,14.84,2.38,19.32,5.18-.56,5.18-.84,12.46,0,17.22h-.84c-2.24-11.76-9.24-16.52-17.78-16.52-10.08,0-15.26,6.16-15.26,13.3,0,19.74,39.9,28.14,39.9,56.14,0,17.22-14.84,28.28-33.46,28.28-12.18,0-20.3-4.76-24.92-8.26Z"></path><path class="cls-1" d="M645.39,345.16c-9.75,0-18.54-2.92-26.13-8.67l-.88-.67.1-1.1c.62-7.01.62-12.67,0-18.37l-.24-2.22h4.72l.31,1.62c2.3,11.86,10.65,19.52,21.28,19.52,7.08,0,15.36-3.51,15.36-13.4s-8.7-16.96-17.91-24.48c-10.74-8.77-21.85-17.84-21.85-32.64,0-18.79,16.75-27.2,33.36-27.2,7.81,0,14.48,1.79,20.38,5.48l1.06.66-.13,1.25c-.52,4.8-.83,12.04-.02,16.66l.42,2.35h-4.88l-.31-1.62c-1.86-9.74-7.32-14.89-15.81-14.89-9.79,0-13.26,6.09-13.26,11.3,0,8.05,8.06,14.5,16.6,21.32,10.92,8.74,23.3,18.64,23.3,34.82,0,17.55-14.91,30.28-35.46,30.28Z"></path><path class="cls-1" d="M645.39,344.16c-9.52,0-18.11-2.85-25.52-8.46l-.44-.33.05-.55c.63-7.07.63-12.8,0-18.56l-.12-1.11h2.78l.16.81c2.39,12.35,11.13,20.33,22.26,20.33,7.55,0,16.36-3.77,16.36-14.4s-8.88-17.58-18.28-25.25c-10.56-8.62-21.48-17.54-21.48-31.87,0-18.1,16.25-26.2,32.36-26.2,7.62,0,14.11,1.74,19.85,5.33l.53.33-.07.62c-.53,4.86-.84,12.21,0,16.94l.21,1.17h-2.86l-.16-.81c-1.96-10.28-7.77-15.71-16.8-15.71-10.53,0-14.26,6.63-14.26,12.3,0,8.53,8.24,15.12,16.97,22.1,10.75,8.59,22.93,18.34,22.93,34.04,0,16.97-14.49,29.28-34.46,29.28Z"></path><path class="cls-1" d="M645.39,344.16c-9.52,0-18.11-2.85-25.52-8.46l-.44-.33.05-.55c.63-7.07.63-12.8,0-18.56l-.12-1.11h2.78l.16.81c2.39,12.35,11.13,20.33,22.26,20.33,7.55,0,16.36-3.77,16.36-14.4s-8.88-17.58-18.28-25.25c-10.56-8.62-21.48-17.54-21.48-31.87,0-18.1,16.25-26.2,32.36-26.2,7.62,0,14.11,1.74,19.85,5.33l.53.33-.07.62c-.53,4.86-.84,12.21,0,16.94l.21,1.17h-2.86l-.16-.81c-1.96-10.28-7.77-15.71-16.8-15.71-10.53,0-14.26,6.63-14.26,12.3,0,8.53,8.24,15.12,16.97,22.1,10.75,8.59,22.93,18.34,22.93,34.04,0,16.97-14.49,29.28-34.46,29.28Z"></path><path class="cls-1" d="M620.47,334.9c.56-6.3.7-12.32,0-18.76h.84c2.66,13.72,12.32,21.14,23.24,21.14,9.52,0,17.36-5.32,17.36-15.4,0-22.54-39.76-30.52-39.76-57.12,0-17.22,15.54-25.2,31.36-25.2,8.68,0,14.84,2.38,19.32,5.18-.56,5.18-.84,12.46,0,17.22h-.84c-2.24-11.76-9.24-16.52-17.78-16.52-10.08,0-15.26,6.16-15.26,13.3,0,19.74,39.9,28.14,39.9,56.14,0,17.22-14.84,28.28-33.46,28.28-12.18,0-20.3-4.76-24.92-8.26Z"></path><path class="cls-1" d="M750.39,345.16c-32.27,0-56.6-23.01-56.6-53.52,0-14.95,5.56-28.66,15.66-38.61,10.22-10.07,24.46-15.61,40.1-15.61,32.11,0,56.32,23.07,56.32,53.66s-23.33,54.08-55.48,54.08ZM748.43,247.16c-18.93,0-32.16,16.74-32.16,40.7s12.1,47.56,35.24,47.56c19.07,0,31.88-16.41,31.88-40.84s-12.01-47.42-34.96-47.42Z"></path><path class="cls-1" d="M750.39,344.16c-31.7,0-55.6-22.58-55.6-52.52,0-14.68,5.46-28.14,15.37-37.9,10.03-9.88,24.02-15.32,39.39-15.32,31.54,0,55.32,22.64,55.32,52.66s-22.91,53.08-54.48,53.08ZM748.43,246.16c-19.52,0-33.16,17.15-33.16,41.7s12.45,48.56,36.24,48.56c19.67,0,32.88-16.81,32.88-41.84s-12.35-48.42-35.96-48.42Z"></path><path class="cls-1" d="M750.39,344.16c-31.7,0-55.6-22.58-55.6-52.52,0-14.68,5.46-28.14,15.37-37.9,10.03-9.88,24.02-15.32,39.39-15.32,31.54,0,55.32,22.64,55.32,52.66s-22.91,53.08-54.48,53.08ZM748.43,246.16c-19.52,0-33.16,17.15-33.16,41.7s12.45,48.56,36.24,48.56c19.67,0,32.88-16.81,32.88-41.84s-12.35-48.42-35.96-48.42Z"></path><path class="cls-1" d="M695.79,291.64c0-29.54,22.26-52.22,53.76-52.22s54.32,21.7,54.32,51.66-21.84,52.08-53.48,52.08-54.6-21.7-54.6-51.52ZM785.39,294.58c0-24.78-12.88-49.42-36.96-49.42-20.72,0-34.16,18.48-34.16,42.7s13.16,49.56,37.24,49.56c20.58,0,33.88-18.06,33.88-42.84Z"></path><path class="cls-1" d="M874.43,345.16c-34.23,0-58.14-22.12-58.14-53.8,0-15.28,5.85-29.07,16.49-38.82,10.53-9.66,25.32-14.98,41.65-14.98,14.08,0,26.05,3.77,31.93,6.01l1.51.58-.24,1.59c-1.02,6.74-1.02,13.41,0,20.99l.3,2.27h-4.6l-.44-1.41c-4.3-13.84-12.82-20.01-27.63-20.01-26.6,0-36.08,20.81-36.08,40.28,0,22.86,10.07,47.28,38.32,47.28,15.76,0,24.92-7.17,28-21.93l.33-1.59h4.68l-.22,2.2c-1.05,10.37-.58,18.35,0,23.22l.19,1.58-1.5.54c-8.09,2.9-21.41,6-34.55,6Z"></path><path class="cls-1" d="M874.43,344.16c-33.64,0-57.14-21.71-57.14-52.8,0-15,5.74-28.52,16.16-38.08,10.34-9.49,24.9-14.72,40.98-14.72,13.93,0,25.76,3.73,31.58,5.95l.75.29-.12.8c-1.03,6.84-1.03,13.6,0,21.28l.15,1.13h-2.72l-.22-.7c-4.45-14.33-13.27-20.72-28.58-20.72-27.34,0-37.08,21.32-37.08,41.28,0,23.34,10.33,48.28,39.32,48.28,16.31,0,25.79-7.43,28.98-22.72l.17-.8h2.76l-.11,1.1c-1.06,10.46-.59,18.52,0,23.44l.09.79-.75.27c-8.01,2.87-21.21,5.94-34.22,5.94Z"></path><path class="cls-1" d="M874.43,344.16c-33.64,0-57.14-21.71-57.14-52.8,0-15,5.74-28.52,16.16-38.08,10.34-9.49,24.9-14.72,40.98-14.72,13.93,0,25.76,3.73,31.58,5.95l.75.29-.12.8c-1.03,6.84-1.03,13.6,0,21.28l.15,1.13h-2.72l-.22-.7c-4.45-14.33-13.27-20.72-28.58-20.72-27.34,0-37.08,21.32-37.08,41.28,0,23.34,10.33,48.28,39.32,48.28,16.31,0,25.79-7.43,28.98-22.72l.17-.8h2.76l-.11,1.1c-1.06,10.46-.59,18.52,0,23.44l.09.79-.75.27c-8.01,2.87-21.21,5.94-34.22,5.94Z"></path><path class="cls-1" d="M818.29,291.36c0-30.52,23.52-51.8,56.14-51.8,12.32,0,23.52,2.94,31.22,5.88-1.12,7.42-.98,14.28,0,21.56h-.84c-5.18-16.66-16.1-21.42-29.54-21.42-25.48,0-38.08,18.76-38.08,42.28s10.64,49.28,40.32,49.28c12.46,0,25.9-4.06,29.96-23.52h.84c-.98,9.66-.7,17.78,0,23.66-7.42,2.66-20.58,5.88-33.88,5.88-33.88,0-56.14-21.98-56.14-51.8Z"></path><path class="cls-1" d="M966.99,343.75c-7.23-.43-14.79-.84-21.02-.84s-14.14.43-21.02.84l-2.12.12v-4.59l1.6-.33c7.14-1.48,9.8-4.22,10.17-10.48.84-12.55.84-22.86.84-37.12s0-24.57-.84-37.11c-.37-6.27-3.03-9.02-10.17-10.49l-1.59-.33v-4.59l2.12.12c6.88.4,14.75.84,21.02.84s13.79-.4,21.02-.84l2.12-.13v4.57l-1.57.35c-7.24,1.6-9.68,4.14-10.05,10.48-.85,14.27-.98,21.09-.98,37.12s.13,22.85.98,37.12c.37,6.26,3,9,10.04,10.48l1.59.33v4.59l-2.12-.13Z"></path><path class="cls-1" d="M967.05,342.76c-7.26-.44-14.83-.84-21.08-.84s-14.19.43-21.08.84l-1.06.06v-2.71l.8-.17c7.6-1.57,10.57-4.66,10.96-11.4.84-12.57.84-22.9.84-37.18s0-24.61-.84-37.17c-.4-6.75-3.37-9.83-10.96-11.41l-.8-.17v-2.71l1.06.06c6.89.41,14.78.84,21.08.84s13.82-.4,21.08-.84l1.06-.06v2.71l-.79.17c-7.7,1.7-10.44,4.57-10.84,11.4-.85,14.3-.98,21.13-.98,37.18s.13,22.88.98,37.18c.4,6.73,3.33,9.82,10.83,11.4l.79.17v2.71l-1.06-.06Z"></path><path class="cls-1" d="M967.05,342.76c-7.26-.44-14.83-.84-21.08-.84s-14.19.43-21.08.84l-1.06.06v-2.71l.8-.17c7.6-1.57,10.57-4.66,10.96-11.4.84-12.57.84-22.9.84-37.18s0-24.61-.84-37.17c-.4-6.75-3.37-9.83-10.96-11.41l-.8-.17v-2.71l1.06.06c6.89.41,14.78.84,21.08.84s13.82-.4,21.08-.84l1.06-.06v2.71l-.79.17c-7.7,1.7-10.44,4.57-10.84,11.4-.85,14.3-.98,21.13-.98,37.18s.13,22.88.98,37.18c.4,6.73,3.33,9.82,10.83,11.4l.79.17v2.71l-1.06-.06Z"></path><path class="cls-1" d="M967.11,241.8c-8.26,1.82-11.2,5.18-11.62,12.32-.84,14.14-.98,21-.98,37.24s.14,23.1.98,37.24c.42,7.14,3.64,10.64,11.62,12.32v.84c-7-.42-14.7-.84-21.14-.84s-14,.42-21.14.84v-.84c8.12-1.68,11.34-5.18,11.76-12.32.84-12.6.84-22.68.84-37.24s0-24.64-.84-37.24c-.42-7.14-3.64-10.64-11.76-12.32v-.84c7.14.42,14.84.84,21.14.84s14.14-.42,21.14-.84v.84Z"></path><path class="cls-1" d="M972.81,339.21l1.69-.27c4.06-.63,7.79-4.67,11.08-12,12.68-28.72,29.14-67.14,37.34-88.24l.49-1.28h2.95l.53,1.18c13.92,31.12,22.34,48.97,41.14,88.44,3.79,8,6.04,10.84,11.86,11.91l1.64.3v4.69l-2.18-.19c-4.53-.4-13.35-.83-19.7-.83s-15.96.29-22.66.83l-2.16.18v-4.82l1.8-.18c4.08-.4,6.71-1.53,7.83-3.35.97-1.57.88-3.86-.26-6.82-1.17-3.2-2.69-6.78-4.31-10.56l-1.05-2.47c-7.18-.17-13.25-.25-18.54-.25-6.33,0-12.42.12-17.23.35-.74,1.91-1.47,3.82-2.19,5.73-.88,2.31-1.75,4.62-2.66,6.93-1.32,3.53-1.52,6.09-.6,7.59.91,1.48,3.25,2.44,6.94,2.85l1.78.2v4.82l-2.18-.2c-2.75-.25-9.69-.83-14.94-.83-4.36,0-9.01.27-14.21.83l-2.21.24v-4.78ZM1007.5,304.77c3.39.18,8.56.4,12.67.4,3.38,0,7.95-.14,13.94-.42-4.73-10.72-9.9-21.69-14.24-30.86-4.04,9.81-8.29,20.42-12.38,30.88Z"></path><path class="cls-1" d="M973.81,340.06l.85-.13c4.41-.69,8.4-4.92,11.84-12.58,12.68-28.72,29.15-67.17,37.36-88.29l.25-.64h1.61l.26.59c13.94,31.16,22.36,49.01,41.15,88.46,3.89,8.21,6.37,11.33,12.58,12.47l.82.15v2.76l-1.09-.1c-4.56-.4-13.42-.84-19.79-.84s-16.01.29-22.74.84l-1.08.09v-2.83l.9-.09c4.4-.43,7.29-1.72,8.59-3.82,1.14-1.85,1.08-4.44-.18-7.71-1.18-3.21-2.71-6.81-4.33-10.62-.42-.99-.85-2-1.29-3.04-7.46-.18-13.75-.26-19.21-.26-6.67,0-13,.14-17.92.38-.83,2.12-1.63,4.23-2.43,6.34-.87,2.31-1.75,4.61-2.65,6.92-1.45,3.9-1.62,6.68-.52,8.48,1.1,1.78,3.61,2.87,7.68,3.32l.89.1v2.83l-1.09-.1c-2.76-.25-9.76-.84-15.03-.84-4.39,0-9.07.27-14.31.83l-1.11.12v-2.81ZM1006.07,305.7c3.38.19,9.42.48,14.11.48s10.77-.26,15.44-.49c-5.22-11.9-11.06-24.25-15.8-34.26-4.46,10.8-9.18,22.57-13.75,34.27Z"></path><path class="cls-1" d="M973.81,340.06l.85-.13c4.41-.69,8.4-4.92,11.84-12.58,12.68-28.72,29.15-67.17,37.36-88.29l.25-.64h1.61l.26.59c13.94,31.16,22.36,49.01,41.15,88.46,3.89,8.21,6.37,11.33,12.58,12.47l.82.15v2.76l-1.09-.1c-4.56-.4-13.42-.84-19.79-.84s-16.01.29-22.74.84l-1.08.09v-2.83l.9-.09c4.4-.43,7.29-1.72,8.59-3.82,1.14-1.85,1.08-4.44-.18-7.71-1.18-3.21-2.71-6.81-4.33-10.62-.42-.99-.85-2-1.29-3.04-7.46-.18-13.75-.26-19.21-.26-6.67,0-13,.14-17.92.38-.83,2.12-1.63,4.23-2.43,6.34-.87,2.31-1.75,4.61-2.65,6.92-1.45,3.9-1.62,6.68-.52,8.48,1.1,1.78,3.61,2.87,7.68,3.32l.89.1v2.83l-1.09-.1c-2.76-.25-9.76-.84-15.03-.84-4.39,0-9.07.27-14.31.83l-1.11.12v-2.81ZM1006.07,305.7c3.38.19,9.42.48,14.11.48s10.77-.26,15.44-.49c-5.22-11.9-11.06-24.25-15.8-34.26-4.46,10.8-9.18,22.57-13.75,34.27Z"></path><path class="cls-1" d="M1079.53,340.92v.84c-4.76-.42-13.72-.84-19.88-.84s-15.96.28-22.82.84v-.84c8.54-.84,12.32-4.9,9.24-12.88-1.54-4.2-3.64-8.96-5.88-14.28-5.74-.14-13.02-.28-19.88-.28s-13.44.14-18.62.42c-1.82,4.62-3.5,9.24-5.32,13.86-3.08,8.26-.84,12.18,7.98,13.16v.84c-4.62-.42-10.64-.84-15.12-.84-5.46,0-10.5.42-14.42.84v-.84c4.48-.7,8.82-4.76,12.6-13.16,11.62-26.32,28.84-66.36,37.38-88.34h.28c14.28,31.92,22.82,49.98,41.16,88.48,3.78,7.98,6.44,11.76,13.3,13.02ZM1037.11,306.62c-5.74-13.16-12.46-27.3-17.36-37.66-4.76,11.48-9.94,24.36-15.12,37.66,4.76.28,10.92.56,15.54.56,4.9,0,11.34-.28,16.94-.56Z"></path><path class="cls-1" d="M1135.69,344.03c-6.9-.41-14.79-.84-21.02-.84s-13.96.41-21.16.84l-2.12.12v-4.59l1.59-.33c7.14-1.48,9.8-4.18,10.17-10.34.83-12.38.98-22.26.98-37.26,0-11.01-.08-27.24-.75-42.07-7.84.16-18.3.63-23.39,1.48-5.39.79-6.92,4.81-9.03,10.38l-.79,2.07-4.83-.8.82-2.26c1.58-4.33,4.19-17.31,5.08-24.21l.22-1.75h4.77l-.17,2.16c-.11,1.39-.02,1.73.02,1.81.05,0,.4.07.69.12,4.19.54,27.08,1.09,37.47,1.09s36.02-.69,40.93-1.25c2.16-.36,2.5-.52,2.91-2.14l.38-1.51h5.01l-.67,2.52c-2.16,8.07-3.77,18.35-4.28,22.94l-.2,1.78h-4.84l.22-2.2c.67-6.67-1.39-8.31-5.17-8.88-4.2-.6-13.63-1.15-22.7-1.34-.43,11.17-.62,24.21-.62,42.07,0,15.91,0,23.17.98,37.24.37,6.25,2.82,8.77,10.05,10.37l1.57.35v4.57l-2.12-.13Z"></path><path class="cls-1" d="M1135.75,343.04c-6.91-.41-14.81-.84-21.08-.84s-14.01.41-21.22.84l-1.06.06v-2.71l.8-.17c7.6-1.57,10.57-4.62,10.97-11.26.83-12.4.98-22.3.98-37.32,0-11.33-.08-28-.79-43.08-8.75.15-19.46.67-24.5,1.51-5.95.87-7.65,5.34-9.8,11.01l-.5,1.3-2.84-.47.41-1.13c1.6-4.39,4.24-17.48,5.13-24.42l.11-.87h2.8l-.09,1.08c-.22,2.7.16,2.76,1.55,2.99,4.23.55,27.22,1.11,37.63,1.11s36.11-.69,41.05-1.25c2.39-.4,3.22-.71,3.76-2.89l.19-.76h2.92l-.34,1.26c-2.17,8.12-3.8,18.47-4.31,23.09l-.1.89h-2.84l.11-1.1c.64-6.42-1.04-9.21-6.01-9.97-4.45-.64-14.35-1.2-23.81-1.37-.46,11.38-.66,24.74-.66,43.08,0,15.93,0,23.21.98,37.31.4,6.73,3.14,9.58,10.84,11.27l.79.17v2.71l-1.06-.06Z"></path><path class="cls-1" d="M1135.75,343.04c-6.91-.41-14.81-.84-21.08-.84s-14.01.41-21.22.84l-1.06.06v-2.71l.8-.17c7.6-1.57,10.57-4.62,10.97-11.26.83-12.4.98-22.3.98-37.32,0-11.33-.08-28-.79-43.08-8.75.15-19.46.67-24.5,1.51-5.95.87-7.65,5.34-9.8,11.01l-.5,1.3-2.84-.47.41-1.13c1.6-4.39,4.24-17.48,5.13-24.42l.11-.87h2.8l-.09,1.08c-.22,2.7.16,2.76,1.55,2.99,4.23.55,27.22,1.11,37.63,1.11s36.11-.69,41.05-1.25c2.39-.4,3.22-.71,3.76-2.89l.19-.76h2.92l-.34,1.26c-2.17,8.12-3.8,18.47-4.31,23.09l-.1.89h-2.84l.11-1.1c.64-6.42-1.04-9.21-6.01-9.97-4.45-.64-14.35-1.2-23.81-1.37-.46,11.38-.66,24.74-.66,43.08,0,15.93,0,23.21.98,37.31.4,6.73,3.14,9.58,10.84,11.27l.79.17v2.71l-1.06-.06Z"></path><path class="cls-1" d="M1160.87,236.76c-2.1,7.84-3.78,18.2-4.34,23.24h-.84c.56-5.6-.42-10.08-6.86-11.06-4.9-.7-15.54-1.26-24.92-1.4-.56,13.44-.7,28.42-.7,44.1s0,23.24.98,37.38c.42,7,3.36,10.36,11.62,12.18v.84c-7-.42-14.84-.84-21.14-.84s-14.14.42-21.28.84v-.84c8.12-1.68,11.34-5.18,11.76-12.18.84-12.6.98-22.82.98-37.38s-.14-29.82-.84-44.1c-9.52.14-20.58.7-25.62,1.54-6.72.98-8.54,6.3-10.78,12.18l-.84-.14c1.68-4.62,4.34-18.06,5.18-24.64h.84c-.28,3.5.7,3.78,2.38,4.06,4.34.56,27.58,1.12,37.8,1.12s36.26-.7,41.16-1.26c2.52-.42,3.92-.84,4.62-3.64h.84Z"></path><path class="cls-1" d="M1214.37,343.75c-7.23-.43-14.79-.84-21.02-.84s-14.14.43-21.02.84l-2.12.12v-4.59l1.6-.33c7.14-1.48,9.8-4.22,10.17-10.48.84-12.55.84-22.86.84-37.12s0-24.57-.84-37.11c-.37-6.27-3.03-9.02-10.17-10.49l-1.59-.33v-4.59l2.12.12c6.88.4,14.75.84,21.02.84s13.79-.4,21.02-.84l2.12-.13v4.57l-1.57.35c-7.24,1.6-9.68,4.14-10.05,10.48-.85,14.27-.98,21.09-.98,37.12s.13,22.85.98,37.12c.37,6.26,3,9,10.04,10.48l1.59.33v4.59l-2.12-.13Z"></path><path class="cls-1" d="M1214.43,342.76c-7.26-.44-14.83-.84-21.08-.84s-14.19.43-21.08.84l-1.06.06v-2.71l.8-.17c7.6-1.57,10.57-4.66,10.96-11.4.84-12.57.84-22.9.84-37.18s0-24.61-.84-37.17c-.4-6.75-3.37-9.83-10.96-11.41l-.8-.17v-2.71l1.06.06c6.89.41,14.78.84,21.08.84s13.82-.4,21.08-.84l1.06-.06v2.71l-.79.17c-7.7,1.7-10.44,4.57-10.84,11.4-.85,14.3-.98,21.13-.98,37.18s.13,22.88.98,37.18c.4,6.73,3.33,9.82,10.83,11.4l.79.17v2.71l-1.06-.06Z"></path><path class="cls-1" d="M1214.43,342.76c-7.26-.44-14.83-.84-21.08-.84s-14.19.43-21.08.84l-1.06.06v-2.71l.8-.17c7.6-1.57,10.57-4.66,10.96-11.4.84-12.57.84-22.9.84-37.18s0-24.61-.84-37.17c-.4-6.75-3.37-9.83-10.96-11.41l-.8-.17v-2.71l1.06.06c6.89.41,14.78.84,21.08.84s13.82-.4,21.08-.84l1.06-.06v2.71l-.79.17c-7.7,1.7-10.44,4.57-10.84,11.4-.85,14.3-.98,21.13-.98,37.18s.13,22.88.98,37.18c.4,6.73,3.33,9.82,10.83,11.4l.79.17v2.71l-1.06-.06Z"></path><path class="cls-1" d="M1214.49,241.8c-8.26,1.82-11.2,5.18-11.62,12.32-.84,14.14-.98,21-.98,37.24s.14,23.1.98,37.24c.42,7.14,3.64,10.64,11.62,12.32v.84c-7-.42-14.7-.84-21.14-.84s-14,.42-21.14.84v-.84c8.12-1.68,11.34-5.18,11.76-12.32.84-12.6.84-22.68.84-37.24s0-24.64-.84-37.24c-.42-7.14-3.64-10.64-11.76-12.32v-.84c7.14.42,14.84.84,21.14.84s14.14-.42,21.14-.84v.84Z"></path><path class="cls-1" d="M1280.29,345.16c-32.27,0-56.6-23.01-56.6-53.52,0-14.95,5.56-28.66,15.66-38.61,10.22-10.07,24.46-15.61,40.1-15.61,32.11,0,56.32,23.07,56.32,53.66s-23.33,54.08-55.48,54.08ZM1278.33,247.16c-18.93,0-32.16,16.74-32.16,40.7s12.1,47.56,35.24,47.56c19.07,0,31.88-16.41,31.88-40.84s-12.01-47.42-34.96-47.42Z"></path><path class="cls-1" d="M1280.29,344.16c-31.7,0-55.6-22.58-55.6-52.52,0-14.68,5.46-28.14,15.37-37.9,10.03-9.88,24.02-15.32,39.39-15.32,31.54,0,55.32,22.64,55.32,52.66s-22.91,53.08-54.48,53.08ZM1278.33,246.16c-19.52,0-33.16,17.15-33.16,41.7s12.45,48.56,36.24,48.56c19.67,0,32.88-16.81,32.88-41.84s-12.35-48.42-35.96-48.42Z"></path><path class="cls-1" d="M1280.29,344.16c-31.7,0-55.6-22.58-55.6-52.52,0-14.68,5.46-28.14,15.37-37.9,10.03-9.88,24.02-15.32,39.39-15.32,31.54,0,55.32,22.64,55.32,52.66s-22.91,53.08-54.48,53.08ZM1278.33,246.16c-19.52,0-33.16,17.15-33.16,41.7s12.45,48.56,36.24,48.56c19.67,0,32.88-16.81,32.88-41.84s-12.35-48.42-35.96-48.42Z"></path><path class="cls-1" d="M1225.69,291.64c0-29.54,22.26-52.22,53.76-52.22s54.32,21.7,54.32,51.66-21.84,52.08-53.48,52.08-54.6-21.7-54.6-51.52ZM1315.29,294.58c0-24.78-12.88-49.42-36.96-49.42-20.72,0-34.16,18.48-34.16,42.7s13.16,49.56,37.24,49.56c20.58,0,33.88-18.06,33.88-42.84Z"></path><path class="cls-1" d="M1439.07,345.16l-.58-.58c-24.4-24.11-47.44-45.89-70.37-66.52v12.18c0,14.38.24,25.03.84,37.99.37,7.21,3.55,9.28,9.67,10.75l1.53.37v4.58l-2.16-.17c-7.45-.58-12.43-.83-16.64-.83-4.48,0-8.45.26-15.66.83l-2.16.17v-4.58l1.53-.37c5.98-1.43,9.3-3.53,9.67-10.48.58-12.67.7-23.57.7-38.11,0-16.34,0-34.85-.14-50.94l-.02-2.02h3.12l.58.57c22.06,21.68,45.1,43.45,70.38,66.48v-16.76c0-14.51-.32-23.52-.84-33.35-.37-7.11-3.55-9.15-9.67-10.62l-1.53-.37v-4.58l2.16.17c6.56.51,11.58.83,16.36.83s9.19-.29,15.94-.83l2.16-.17v4.58l-1.53.37c-5.99,1.44-9.3,3.53-9.67,10.48-.58,11.38-.7,21.31-.7,34.61,0,17.19,0,36.67.14,54.3l.02,2.02h-3.12Z"></path><path class="cls-1" d="M1439.48,344.16l-.29-.29c-24.97-24.68-48.57-46.96-72.08-68.05v14.42c0,14.39.24,25.05.84,38.03.4,7.81,3.98,10.13,10.43,11.67l.77.18v2.71l-1.08-.08c-7.48-.59-12.48-.84-16.72-.84-4.51,0-8.5.26-15.74.84l-1.08.09v-2.71l.77-.18c6.3-1.51,10.03-3.86,10.43-11.4.58-12.7.7-23.61.7-38.17,0-16.34,0-34.86-.14-50.95v-1.01s1.69,0,1.69,0l.29.29c22.54,22.16,46.14,44.43,72.08,68.03v-19.02c0-14.54-.32-23.56-.84-33.41-.4-7.69-3.98-9.99-10.43-11.54l-.77-.18v-2.71l1.08.08c6.58.52,11.63.84,16.44.84s9.25-.29,16.02-.84l1.08-.09v2.71l-.77.18c-6.3,1.51-10.03,3.86-10.43,11.4-.58,11.4-.7,21.35-.7,34.67,0,17.19,0,36.68.14,54.31v1.01s-1.69,0-1.69,0Z"></path><path class="cls-1" d="M1439.48,344.16l-.29-.29c-24.97-24.68-48.57-46.96-72.08-68.05v14.42c0,14.39.24,25.05.84,38.03.4,7.81,3.98,10.13,10.43,11.67l.77.18v2.71l-1.08-.08c-7.48-.59-12.48-.84-16.72-.84-4.51,0-8.5.26-15.74.84l-1.08.09v-2.71l.77-.18c6.3-1.51,10.03-3.86,10.43-11.4.58-12.7.7-23.61.7-38.17,0-16.34,0-34.86-.14-50.95v-1.01s1.69,0,1.69,0l.29.29c22.54,22.16,46.14,44.43,72.08,68.03v-19.02c0-14.54-.32-23.56-.84-33.41-.4-7.69-3.98-9.99-10.43-11.54l-.77-.18v-2.71l1.08.08c6.58.52,11.63.84,16.44.84s9.25-.29,16.02-.84l1.08-.09v2.71l-.77.18c-6.3,1.51-10.03,3.86-10.43,11.4-.58,11.4-.7,21.35-.7,34.67,0,17.19,0,36.68.14,54.31v1.01s-1.69,0-1.69,0Z"></path><path class="cls-1" d="M1451.93,240.96v.84c-7,1.68-10.78,4.48-11.2,12.32-.56,10.92-.7,20.44-.7,34.72,0,17.22,0,36.68.14,54.32h-.28c-23.94-23.66-48.44-46.9-73.78-69.58v16.66c0,15.54.28,26.04.84,38.08.42,8.12,4.2,10.92,11.2,12.6v.84c-7.14-.56-12.32-.84-16.8-.84s-8.82.28-15.82.84v-.84c7-1.68,10.78-4.48,11.2-12.32.56-12.18.7-22.68.7-38.22s0-34.86-.14-50.96h.28c24.64,24.22,49.28,47.32,73.78,69.58v-21.28c0-13.86-.28-22.82-.84-33.46-.42-7.98-4.2-10.78-11.2-12.46v-.84c7.14.56,11.9.84,16.52.84s9.1-.28,16.1-.84Z"></path><path class="cls-1" d="M1545.7,345.3l-.53-1.19c-20.09-45.06-28-61.46-41.26-88.12-3.99-7.84-6.75-10.71-11.82-12.28l-1.41-.44v-4.46l2.14.15c5.81.41,14.55.83,20.02.83s16.69-.29,22.78-.83l2.18-.19v4.64l-1.58.34c-5.03,1.07-7.66,2.25-8.53,3.81-.73,1.31-.5,3.47.76,7,6.41,17.33,18.88,42.74,24.88,54.66,6.4-14.54,14-32.52,23.19-54.89,1.67-4.11,2.08-6.41,1.39-7.72-.66-1.22-2.64-2.13-6.24-2.86l-1.6-.33v-4.7l2.21.24c5.15.56,10.02.83,14.9.83,4.39,0,9.53-.45,12.93-.75l3.07-.27v4.36l-1.24.51c-5.81,2.4-7.78,4.48-11.71,12.35-11.7,24.33-25.16,53.17-41.13,88.14l-.53,1.17h-2.86Z"></path><path class="cls-1" d="M1546.34,344.3l-.26-.59c-20.1-45.1-28.02-61.49-41.28-88.16-4.14-8.14-7.04-11.13-12.42-12.79l-.7-.22v-2.65l1.07.08c5.83.42,14.6.84,20.09.84s16.74-.29,22.87-.84l1.09-.1v2.74l-.79.17c-5.41,1.15-8.16,2.44-9.2,4.3-.9,1.61-.69,3.94.69,7.82,6.67,18.04,19.67,44.38,25.88,56.66,6.57-14.85,14.45-33.48,24.06-56.85,1.82-4.47,2.21-6.96,1.34-8.57-.82-1.53-2.95-2.57-6.92-3.37l-.8-.16v-2.77l1.11.12c5.19.56,10.1.83,15.01.83,4.43,0,9.6-.46,13.02-.76l1.98-.17v2.6l-.62.25c-6.03,2.49-8.2,4.77-12.23,12.82-11.71,24.36-25.17,53.2-41.15,88.17l-.27.58h-1.57Z"></path><path class="cls-1" d="M1546.34,344.3l-.26-.59c-20.1-45.1-28.02-61.49-41.28-88.16-4.14-8.14-7.04-11.13-12.42-12.79l-.7-.22v-2.65l1.07.08c5.83.42,14.6.84,20.09.84s16.74-.29,22.87-.84l1.09-.1v2.74l-.79.17c-5.41,1.15-8.16,2.44-9.2,4.3-.9,1.61-.69,3.94.69,7.82,6.67,18.04,19.67,44.38,25.88,56.66,6.57-14.85,14.45-33.48,24.06-56.85,1.82-4.47,2.21-6.96,1.34-8.57-.82-1.53-2.95-2.57-6.92-3.37l-.8-.16v-2.77l1.11.12c5.19.56,10.1.83,15.01.83,4.43,0,9.6-.46,13.02-.76l1.98-.17v2.6l-.62.25c-6.03,2.49-8.2,4.77-12.23,12.82-11.71,24.36-25.17,53.2-41.15,88.17l-.27.58h-1.57Z"></path><path class="cls-1" d="M1601.17,240.96v.84c-6.44,2.66-8.68,5.18-12.74,13.3-14,29.12-28.56,60.62-41.16,88.2h-.28c-20.16-45.22-28.14-61.74-41.3-88.2-4.06-7.98-7.14-11.48-13.02-13.3v-.84c5.88.42,14.7.84,20.16.84s16.66-.28,22.96-.84v.84c-10.5,2.24-12.18,5.18-9.24,13.44,6.16,16.66,18.06,41.3,26.88,58.66,7.84-17.64,16.52-38.36,24.92-58.8,3.36-8.26,2.66-11.48-6.3-13.3v-.84c5.18.56,10.08.84,15.12.84s10.78-.56,14-.84Z"></path><path class="cls-1" d="M1650.89,343.75c-7.23-.43-14.79-.84-21.02-.84s-14.14.43-21.02.84l-2.12.12v-4.59l1.6-.33c7.14-1.48,9.8-4.22,10.17-10.48.84-12.55.84-22.86.84-37.12s0-24.57-.84-37.11c-.37-6.27-3.03-9.02-10.17-10.49l-1.59-.33v-4.59l2.12.12c6.88.4,14.75.84,21.02.84s13.79-.4,21.02-.84l2.12-.13v4.57l-1.57.35c-7.24,1.6-9.68,4.14-10.05,10.48-.85,14.27-.98,21.09-.98,37.12s.13,22.85.98,37.12c.37,6.26,3,9,10.04,10.48l1.59.33v4.59l-2.12-.13Z"></path><path class="cls-1" d="M1650.95,342.76c-7.26-.44-14.83-.84-21.08-.84s-14.19.43-21.08.84l-1.06.06v-2.71l.8-.17c7.6-1.57,10.57-4.66,10.96-11.4.84-12.57.84-22.9.84-37.18s0-24.61-.84-37.17c-.4-6.75-3.37-9.83-10.96-11.41l-.8-.17v-2.71l1.06.06c6.89.41,14.78.84,21.08.84s13.82-.4,21.08-.84l1.06-.06v2.71l-.79.17c-7.7,1.7-10.44,4.57-10.84,11.4-.85,14.3-.98,21.13-.98,37.18s.13,22.88.98,37.18c.4,6.73,3.33,9.82,10.83,11.4l.79.17v2.71l-1.06-.06Z"></path><path class="cls-1" d="M1650.95,342.76c-7.26-.44-14.83-.84-21.08-.84s-14.19.43-21.08.84l-1.06.06v-2.71l.8-.17c7.6-1.57,10.57-4.66,10.96-11.4.84-12.57.84-22.9.84-37.18s0-24.61-.84-37.17c-.4-6.75-3.37-9.83-10.96-11.41l-.8-.17v-2.71l1.06.06c6.89.41,14.78.84,21.08.84s13.82-.4,21.08-.84l1.06-.06v2.71l-.79.17c-7.7,1.7-10.44,4.57-10.84,11.4-.85,14.3-.98,21.13-.98,37.18s.13,22.88.98,37.18c.4,6.73,3.33,9.82,10.83,11.4l.79.17v2.71l-1.06-.06Z"></path><path class="cls-1" d="M1651.01,241.8c-8.26,1.82-11.2,5.18-11.62,12.32-.84,14.14-.98,21-.98,37.24s.14,23.1.98,37.24c.42,7.14,3.64,10.64,11.62,12.32v.84c-7-.42-14.7-.84-21.14-.84s-14,.42-21.14.84v-.84c8.12-1.68,11.34-5.18,11.76-12.32.84-12.6.84-22.68.84-37.24s0-24.64-.84-37.24c-.42-7.14-3.64-10.64-11.76-12.32v-.84c7.14.42,14.84.84,21.14.84s14.14-.42,21.14-.84v.84Z"></path><path class="cls-1" d="M1711.59,345.3l-.53-1.19c-20.09-45.07-28-61.46-41.26-88.12-3.99-7.84-6.75-10.71-11.82-12.28l-1.41-.44v-4.46l2.14.15c5.81.41,14.55.83,20.02.83s16.69-.29,22.78-.83l2.18-.19v4.64l-1.58.34c-5.03,1.07-7.66,2.25-8.53,3.81-.73,1.31-.5,3.47.76,7,6.41,17.33,18.88,42.74,24.88,54.66,6.4-14.54,14-32.52,23.19-54.89,1.67-4.11,2.08-6.41,1.39-7.72-.66-1.22-2.64-2.13-6.24-2.86l-1.6-.33v-4.7l2.21.24c5.15.56,10.02.83,14.9.83,4.39,0,9.53-.45,12.93-.75l3.07-.27v4.36l-1.24.51c-5.81,2.4-7.78,4.48-11.71,12.35-11.71,24.35-25.17,53.19-41.13,88.14l-.53,1.17h-2.86Z"></path><path class="cls-1" d="M1712.24,344.3l-.26-.59c-20.1-45.1-28.02-61.49-41.28-88.16-4.14-8.14-7.04-11.13-12.42-12.79l-.7-.22v-2.65l1.07.08c5.83.42,14.6.84,20.09.84s16.74-.29,22.87-.84l1.09-.1v2.74l-.79.17c-5.41,1.15-8.16,2.44-9.2,4.3-.9,1.61-.69,3.94.69,7.82,6.67,18.04,19.67,44.38,25.88,56.66,6.57-14.85,14.45-33.48,24.06-56.85,1.82-4.47,2.21-6.96,1.34-8.57-.82-1.53-2.95-2.57-6.92-3.37l-.8-.16v-2.77l1.11.12c5.19.56,10.1.83,15.01.83,4.43,0,9.6-.46,13.02-.76l1.98-.17v2.6l-.62.25c-6.03,2.49-8.2,4.77-12.23,12.82-11.71,24.36-25.17,53.2-41.15,88.17l-.27.58h-1.57Z"></path><path class="cls-1" d="M1712.24,344.3l-.26-.59c-20.1-45.1-28.02-61.49-41.28-88.16-4.14-8.14-7.04-11.13-12.42-12.79l-.7-.22v-2.65l1.07.08c5.83.42,14.6.84,20.09.84s16.74-.29,22.87-.84l1.09-.1v2.74l-.79.17c-5.41,1.15-8.16,2.44-9.2,4.3-.9,1.61-.69,3.94.69,7.82,6.67,18.04,19.67,44.38,25.88,56.66,6.57-14.85,14.45-33.48,24.06-56.85,1.82-4.47,2.21-6.96,1.34-8.57-.82-1.53-2.95-2.57-6.92-3.37l-.8-.16v-2.77l1.11.12c5.19.56,10.1.83,15.01.83,4.43,0,9.6-.46,13.02-.76l1.98-.17v2.6l-.62.25c-6.03,2.49-8.2,4.77-12.23,12.82-11.71,24.36-25.17,53.2-41.15,88.17l-.27.58h-1.57Z"></path><path class="cls-1" d="M1767.07,240.96v.84c-6.44,2.66-8.68,5.18-12.74,13.3-14,29.12-28.56,60.62-41.16,88.2h-.28c-20.16-45.22-28.14-61.74-41.3-88.2-4.06-7.98-7.14-11.48-13.02-13.3v-.84c5.88.42,14.7.84,20.16.84s16.66-.28,22.96-.84v.84c-10.5,2.24-12.18,5.18-9.24,13.44,6.16,16.66,18.06,41.3,26.88,58.66,7.84-17.64,16.52-38.36,24.92-58.8,3.36-8.26,2.66-11.48-6.3-13.3v-.84c5.18.56,10.08.84,15.12.84s10.78-.56,14-.84Z"></path><path class="cls-1" d="M1816.79,343.75c-7.23-.43-14.79-.84-21.02-.84s-14.14.43-21.02.84l-2.12.12v-4.59l1.6-.33c7.24-1.5,9.8-4.11,10.17-10.34.84-12.55.84-22.92.84-37.26,0-23.44-.38-33.57-.69-37.94-.49-6.74-2.85-8.29-10.17-9.81l-1.6-.33v-4.64l2.17.18c6.26.52,13.37.83,19.01.83,3.84,0,7.54-.19,11.12-.38,3.14-.16,6.09-.32,8.76-.32,22.82,0,37.56,11.83,37.56,30.14,0,10.81-5.05,20.44-13.89,26.55,15.16,26.67,24.31,42.76,39.26,43.27l1.93.06v4.77h-2c-36.4,0-39.51-5.45-49.81-23.5-2.76-4.84-6.18-10.84-11.03-17.93h-1.47c-2.58,0-5.51-.09-8.05-.26.12,8.77.27,15.63.95,26.7.37,6.18,2.9,8.75,10.02,10.2l1.6.32v4.6l-2.12-.13ZM1806.31,292.8c1.7.42,3.53.62,5.7.62,16.98,0,18.3-16.9,18.3-22.08,0-10.31-4.94-22.36-18.86-22.36-1.58,0-2.98.09-4.37.27-.77,19.03-.77,28.74-.77,42.11v1.44Z"></path><path class="cls-1" d="M1816.85,342.76c-7.26-.44-14.83-.84-21.08-.84s-14.19.43-21.08.84l-1.06.06v-2.71l.8-.17c7.7-1.59,10.57-4.54,10.96-11.26.84-12.58.84-22.96.84-37.32,0-23.46-.38-33.62-.7-38.01-.53-7.28-3.33-9.13-10.96-10.71l-.8-.17v-2.74l1.08.09c6.29.52,13.43.84,19.1.84,3.85,0,7.58-.19,11.18-.38,3.12-.16,6.06-.32,8.7-.32,22.21,0,36.56,11.44,36.56,29.14,0,10.83-5.17,20.34-14.22,26.24l.44.78c15.34,26.99,24.6,43.28,40.11,43.81l.97.03v2.81h-1c-35.82,0-38.86-5.33-48.94-23-2.83-4.97-6.35-11.13-11.37-18.44h-1.99c-2.97,0-6.34-.12-9.07-.33.13,9.63.28,16.58.96,27.83.4,6.67,3.23,9.58,10.82,11.12l.8.16v2.72l-1.06-.06ZM1805.31,293.56c1.99.58,4.14.86,6.7.86,17.91,0,19.3-17.67,19.3-23.08,0-10.78-5.2-23.36-19.86-23.36-1.94,0-3.61.13-5.33.41-.81,19.6-.81,29.44-.81,42.97v2.2Z"></path><path class="cls-1" d="M1816.85,342.76c-7.26-.44-14.83-.84-21.08-.84s-14.19.43-21.08.84l-1.06.06v-2.71l.8-.17c7.7-1.59,10.57-4.54,10.96-11.26.84-12.58.84-22.96.84-37.32,0-23.46-.38-33.62-.7-38.01-.53-7.28-3.33-9.13-10.96-10.71l-.8-.17v-2.74l1.08.09c6.29.52,13.43.84,19.1.84,3.85,0,7.58-.19,11.18-.38,3.12-.16,6.06-.32,8.7-.32,22.21,0,36.56,11.44,36.56,29.14,0,10.83-5.17,20.34-14.22,26.24l.44.78c15.34,26.99,24.6,43.28,40.11,43.81l.97.03v2.81h-1c-35.82,0-38.86-5.33-48.94-23-2.83-4.97-6.35-11.13-11.37-18.44h-1.99c-2.97,0-6.34-.12-9.07-.33.13,9.63.28,16.58.96,27.83.4,6.67,3.23,9.58,10.82,11.12l.8.16v2.72l-1.06-.06ZM1805.31,293.56c1.99.58,4.14.86,6.7.86,17.91,0,19.3-17.67,19.3-23.08,0-10.78-5.2-23.36-19.86-23.36-1.94,0-3.61.13-5.33.41-.81,19.6-.81,29.44-.81,42.97v2.2Z"></path><path class="cls-1" d="M1876.69,340.92v.84c-45.64,0-36.96-8.4-59.78-41.44h-2.52c-3.08,0-7-.14-10.08-.42.14,10.64.28,17.5.98,28.98.42,7,3.36,10.36,11.62,12.04v.84c-7-.42-14.7-.84-21.14-.84s-14,.42-21.14.84v-.84c8.12-1.68,11.34-5.04,11.76-12.18.84-12.6.84-22.82.84-37.38,0-5.46,0-28.42-.7-38.08-.56-7.7-3.64-9.94-11.76-11.62v-.84c6.72.56,13.86.84,19.18.84,7.28,0,14.28-.7,19.88-.7,22.96,0,35.56,11.9,35.56,28.14,0,10.5-5.18,20.16-14.56,25.9,16.24,28.56,25.48,45.36,41.86,45.92ZM1832.31,271.34c0-12.88-6.72-24.36-20.86-24.36-2.1,0-4.06.14-6.3.56-.84,20.16-.84,30.1-.84,43.82v2.94c2.1.7,4.48,1.12,7.7,1.12,16.52,0,20.3-14.28,20.3-24.08Z"></path><path class="cls-1" d="M1950.75,343.75c-11.83-.83-23.12-.83-32.2-.83-4,0-24.48.04-35.27.83l-2.15.16v-4.62l1.59-.33c7.64-1.61,9.83-3.89,10.17-10.61.7-12.97.7-21,.7-37,0-14.02,0-24.15-.84-36.69-.38-6.54-3.23-9.6-10.14-10.91l-1.63-.31v-4.58l2.09.09c13.16.56,24.76.84,35.47.84,11.27,0,22.8-.36,31.64-.97l2.44-.17-.32,2.43c-.64,4.91-.85,13.67,0,20.92l.26,2.23h-4.75l-.31-1.63c-1.98-10.5-6.89-14.05-19.46-14.05-3.92,0-7.95.17-12.62.54-.62,17.36-.76,25.92-.77,35.68.33,0,.67,0,1.02,0,2.91,0,6.4-.12,11.45-.33,9.27-.37,10.3-3.21,11.57-9.07l.41-1.86,4.55.76-.17,1.85c-.37,3.95-.83,8.85-.83,12.97s.29,8.8.82,12.9l.25,1.91-4.57.76-.44-1.8c-1.66-6.78-2.11-8.61-11.58-8.98-4.18-.24-8.37-.38-12.48-.41.01,15.64.18,25.06.55,30.48.42,7.5,5.62,8.92,15.08,8.92,11.3,0,15.29-3.35,17.79-14.94l.4-1.87,4.59.76-.21,1.88c-.82,7.54-.82,15,0,22.81l.25,2.37-2.38-.17Z"></path><path class="cls-1" d="M1950.82,342.76c-11.87-.84-23.18-.84-32.27-.84-4,0-24.51.04-35.35.84l-1.07.08v-2.73l.79-.17c8.04-1.69,10.6-4.39,10.97-11.53.7-13,.7-21.03.7-37.05,0-14.04,0-24.19-.84-36.75-.41-7-3.58-10.43-10.95-11.82l-.81-.15v-2.71l1.04.04c13.17.56,24.79.84,35.52.84,11.3,0,22.85-.36,31.71-.98l1.22-.09-.16,1.21c-.65,4.97-.86,13.83,0,21.17l.13,1.12h-2.79l-.15-.82c-2.07-10.97-7.41-14.86-20.44-14.86-4.17,0-8.51.2-13.59.62-.67,18.37-.8,27.06-.81,37.59.64.02,1.31.02,2.02.02,2.91,0,6.42-.12,11.5-.33,9.97-.4,11.2-3.83,12.5-9.85l.2-.93,2.7.45-.09.93c-.37,3.97-.84,8.91-.84,13.07s.29,8.88.83,13.03l.12.96-2.71.45-.22-.9c-1.71-6.98-2.29-9.34-12.51-9.74-4.53-.26-9.07-.4-13.52-.42,0,16.26.18,26.01.56,31.55.51,9.1,7.9,9.85,16.08,9.85,11.79,0,16.17-3.67,18.76-15.73l.2-.93,2.71.45-.1.94c-.83,7.61-.83,15.14,0,23.03l.12,1.19-1.19-.08Z"></path><path class="cls-1" d="M1950.82,342.76c-11.87-.84-23.18-.84-32.27-.84-4,0-24.51.04-35.35.84l-1.07.08v-2.73l.79-.17c8.04-1.69,10.6-4.39,10.97-11.53.7-13,.7-21.03.7-37.05,0-14.04,0-24.19-.84-36.75-.41-7-3.58-10.43-10.95-11.82l-.81-.15v-2.71l1.04.04c13.17.56,24.79.84,35.52.84,11.3,0,22.85-.36,31.71-.98l1.22-.09-.16,1.21c-.65,4.97-.86,13.83,0,21.17l.13,1.12h-2.79l-.15-.82c-2.07-10.97-7.41-14.86-20.44-14.86-4.17,0-8.51.2-13.59.62-.67,18.37-.8,27.06-.81,37.59.64.02,1.31.02,2.02.02,2.91,0,6.42-.12,11.5-.33,9.97-.4,11.2-3.83,12.5-9.85l.2-.93,2.7.45-.09.93c-.37,3.97-.84,8.91-.84,13.07s.29,8.88.83,13.03l.12.96-2.71.45-.22-.9c-1.71-6.98-2.29-9.34-12.51-9.74-4.53-.26-9.07-.4-13.52-.42,0,16.26.18,26.01.56,31.55.51,9.1,7.9,9.85,16.08,9.85,11.79,0,16.17-3.67,18.76-15.73l.2-.93,2.71.45-.1.94c-.83,7.61-.83,15.14,0,23.03l.12,1.19-1.19-.08Z"></path><path class="cls-1" d="M1950.89,318.52c-.84,7.7-.84,15.26,0,23.24-11.9-.84-23.1-.84-32.34-.84-8.68,0-25.9.14-35.42.84v-.84c7.98-1.68,11.34-4.34,11.76-12.46.7-13.02.7-21.28.7-37.1,0-14,0-24.22-.84-36.82-.42-7.14-3.64-11.2-11.76-12.74v-.84c9.8.42,22.26.84,35.56.84,12.32,0,23.8-.42,31.78-.98-.7,5.32-.84,14.28,0,21.42h-.84c-2.24-11.9-8.4-15.68-21.42-15.68-3.64,0-8.12.14-14.56.7-.7,19.18-.84,27.86-.84,39.48,3.5.14,7.84,0,14.56-.28,10.5-.42,12.04-4.2,13.44-10.64l.84.14c-.42,4.48-.84,9.1-.84,13.16s.28,8.82.84,13.16l-.84.14c-1.82-7.42-2.8-10.08-13.44-10.5-4.9-.28-9.8-.42-14.56-.42,0,15.54.14,26.46.56,32.62.56,10.08,9.1,10.78,17.08,10.78,11.9,0,16.94-3.5,19.74-16.52l.84.14Z"></path><path class="cls-1" d="M2068.21,343.75c-11.83-.83-23.12-.83-32.2-.83-4,0-24.48.04-35.27.83l-2.15.16v-4.62l1.59-.33c7.64-1.61,9.83-3.89,10.17-10.61.7-12.97.7-21,.7-37,0-14.02,0-24.15-.84-36.69-.38-6.54-3.23-9.6-10.14-10.91l-1.63-.31v-4.58l2.09.09c13.16.56,24.76.84,35.47.84,11.27,0,22.8-.36,31.64-.97l2.44-.17-.32,2.43c-.64,4.91-.85,13.67,0,20.92l.26,2.23h-4.75l-.31-1.63c-1.98-10.5-6.89-14.05-19.46-14.05-3.92,0-7.95.17-12.62.54-.62,17.36-.76,25.92-.77,35.68.33,0,.67,0,1.02,0,2.91,0,6.4-.12,11.45-.33,9.27-.37,10.3-3.21,11.57-9.07l.41-1.86,4.55.76-.17,1.85c-.37,3.95-.83,8.85-.83,12.97s.29,8.8.82,12.9l.25,1.91-4.57.76-.44-1.8c-1.66-6.78-2.11-8.61-11.58-8.98-4.18-.24-8.37-.38-12.48-.41.01,15.64.18,25.06.55,30.48.42,7.5,5.62,8.92,15.08,8.92,11.3,0,15.29-3.35,17.79-14.94l.4-1.87,4.59.76-.21,1.88c-.82,7.54-.82,15,0,22.81l.25,2.37-2.38-.17Z"></path><path class="cls-1" d="M2068.28,342.76c-11.87-.84-23.18-.84-32.27-.84-4,0-24.51.04-35.35.84l-1.07.08v-2.73l.79-.17c8.04-1.69,10.6-4.39,10.97-11.53.7-13,.7-21.03.7-37.05,0-14.04,0-24.19-.84-36.75-.41-7-3.58-10.43-10.95-11.82l-.81-.15v-2.71l1.04.04c13.17.56,24.79.84,35.52.84,11.3,0,22.85-.36,31.71-.98l1.22-.09-.16,1.21c-.65,4.97-.86,13.83,0,21.17l.13,1.12h-2.79l-.15-.82c-2.07-10.97-7.41-14.86-20.44-14.86-4.17,0-8.51.2-13.59.62-.67,18.37-.8,27.06-.81,37.59.64.02,1.31.02,2.02.02,2.91,0,6.42-.12,11.5-.33,9.97-.4,11.2-3.83,12.5-9.85l.2-.93,2.7.45-.09.93c-.37,3.97-.84,8.91-.84,13.07s.29,8.88.83,13.03l.12.96-2.71.45-.22-.9c-1.71-6.98-2.29-9.34-12.51-9.74-4.53-.26-9.07-.4-13.52-.42,0,16.26.18,26.01.56,31.55.51,9.1,7.9,9.85,16.08,9.85,11.79,0,16.17-3.67,18.76-15.73l.2-.93,2.71.45-.1.94c-.83,7.61-.83,15.14,0,23.03l.12,1.19-1.19-.08Z"></path><path class="cls-1" d="M2068.28,342.76c-11.87-.84-23.18-.84-32.27-.84-4,0-24.51.04-35.35.84l-1.07.08v-2.73l.79-.17c8.04-1.69,10.6-4.39,10.97-11.53.7-13,.7-21.03.7-37.05,0-14.04,0-24.19-.84-36.75-.41-7-3.58-10.43-10.95-11.82l-.81-.15v-2.71l1.04.04c13.17.56,24.79.84,35.52.84,11.3,0,22.85-.36,31.71-.98l1.22-.09-.16,1.21c-.65,4.97-.86,13.83,0,21.17l.13,1.12h-2.79l-.15-.82c-2.07-10.97-7.41-14.86-20.44-14.86-4.17,0-8.51.2-13.59.62-.67,18.37-.8,27.06-.81,37.59.64.02,1.31.02,2.02.02,2.91,0,6.42-.12,11.5-.33,9.97-.4,11.2-3.83,12.5-9.85l.2-.93,2.7.45-.09.93c-.37,3.97-.84,8.91-.84,13.07s.29,8.88.83,13.03l.12.96-2.71.45-.22-.9c-1.71-6.98-2.29-9.34-12.51-9.74-4.53-.26-9.07-.4-13.52-.42,0,16.26.18,26.01.56,31.55.51,9.1,7.9,9.85,16.08,9.85,11.79,0,16.17-3.67,18.76-15.73l.2-.93,2.71.45-.1.94c-.83,7.61-.83,15.14,0,23.03l.12,1.19-1.19-.08Z"></path><path class="cls-1" d="M2068.35,318.52c-.84,7.7-.84,15.26,0,23.24-11.9-.84-23.1-.84-32.34-.84-8.68,0-25.9.14-35.42.84v-.84c7.98-1.68,11.34-4.34,11.76-12.46.7-13.02.7-21.28.7-37.1,0-14,0-24.22-.84-36.82-.42-7.14-3.64-11.2-11.76-12.74v-.84c9.8.42,22.26.84,35.56.84,12.32,0,23.8-.42,31.78-.98-.7,5.32-.84,14.28,0,21.42h-.84c-2.24-11.9-8.4-15.68-21.42-15.68-3.64,0-8.12.14-14.56.7-.7,19.18-.84,27.86-.84,39.48,3.5.14,7.84,0,14.56-.28,10.5-.42,12.04-4.2,13.44-10.64l.84.14c-.42,4.48-.84,9.1-.84,13.16s.28,8.82.84,13.16l-.84.14c-1.82-7.42-2.8-10.08-13.44-10.5-4.9-.28-9.8-.42-14.56-.42,0,15.54.14,26.46.56,32.62.56,10.08,9.1,10.78,17.08,10.78,11.9,0,16.94-3.5,19.74-16.52l.84.14Z"></path><path class="cls-1" d="M2176.45,345.16l-.58-.58c-24.4-24.11-47.44-45.89-70.37-66.52v12.18c0,14.38.24,25.03.84,37.99.37,7.21,3.55,9.28,9.67,10.75l1.53.37v4.58l-2.16-.17c-7.45-.58-12.43-.83-16.64-.83-4.48,0-8.45.26-15.66.83l-2.16.17v-4.58l1.53-.37c5.98-1.43,9.3-3.53,9.67-10.48.58-12.67.7-23.57.7-38.11,0-16.34,0-34.85-.14-50.94l-.02-2.02h3.12l.58.57c22.06,21.68,45.1,43.45,70.38,66.48v-16.76c0-14.51-.32-23.52-.84-33.35-.37-7.11-3.55-9.15-9.67-10.62l-1.53-.37v-4.58l2.16.17c6.56.51,11.58.83,16.36.83s9.19-.29,15.94-.83l2.16-.17v4.58l-1.53.37c-5.99,1.44-9.3,3.53-9.67,10.48-.58,11.38-.7,21.31-.7,34.61,0,17.19,0,36.67.14,54.3l.02,2.02h-3.12Z"></path><path class="cls-1" d="M2176.86,344.16l-.29-.29c-24.97-24.68-48.57-46.96-72.08-68.05v14.42c0,14.39.24,25.05.84,38.03.4,7.81,3.98,10.13,10.43,11.67l.77.18v2.71l-1.08-.08c-7.48-.59-12.48-.84-16.72-.84-4.51,0-8.5.26-15.74.84l-1.08.09v-2.71l.77-.18c6.3-1.51,10.03-3.86,10.43-11.4.58-12.7.7-23.61.7-38.17,0-16.34,0-34.86-.14-50.95v-1.01s1.69,0,1.69,0l.29.29c22.54,22.16,46.14,44.43,72.08,68.03v-19.02c0-14.54-.32-23.56-.84-33.41-.4-7.69-3.98-9.99-10.43-11.54l-.77-.18v-2.71l1.08.08c6.58.52,11.63.84,16.44.84s9.25-.29,16.02-.84l1.08-.09v2.71l-.77.18c-6.3,1.51-10.03,3.86-10.43,11.4-.58,11.4-.7,21.35-.7,34.67,0,17.19,0,36.68.14,54.31v1.01s-1.69,0-1.69,0Z"></path><path class="cls-1" d="M2176.86,344.16l-.29-.29c-24.97-24.68-48.57-46.96-72.08-68.05v14.42c0,14.39.24,25.05.84,38.03.4,7.81,3.98,10.13,10.43,11.67l.77.18v2.71l-1.08-.08c-7.48-.59-12.48-.84-16.72-.84-4.51,0-8.5.26-15.74.84l-1.08.09v-2.71l.77-.18c6.3-1.51,10.03-3.86,10.43-11.4.58-12.7.7-23.61.7-38.17,0-16.34,0-34.86-.14-50.95v-1.01s1.69,0,1.69,0l.29.29c22.54,22.16,46.14,44.43,72.08,68.03v-19.02c0-14.54-.32-23.56-.84-33.41-.4-7.69-3.98-9.99-10.43-11.54l-.77-.18v-2.71l1.08.08c6.58.52,11.63.84,16.44.84s9.25-.29,16.02-.84l1.08-.09v2.71l-.77.18c-6.3,1.51-10.03,3.86-10.43,11.4-.58,11.4-.7,21.35-.7,34.67,0,17.19,0,36.68.14,54.31v1.01s-1.69,0-1.69,0Z"></path><path class="cls-1" d="M2189.31,240.96v.84c-7,1.68-10.78,4.48-11.2,12.32-.56,10.92-.7,20.44-.7,34.72,0,17.22,0,36.68.14,54.32h-.28c-23.94-23.66-48.44-46.9-73.78-69.58v16.66c0,15.54.28,26.04.84,38.08.42,8.12,4.2,10.92,11.2,12.6v.84c-7.14-.56-12.32-.84-16.8-.84s-8.82.28-15.82.84v-.84c7-1.68,10.78-4.48,11.2-12.32.56-12.18.7-22.68.7-38.22s0-34.86-.14-50.96h.28c24.64,24.22,49.28,47.32,73.78,69.58v-21.28c0-13.86-.28-22.82-.84-33.46-.42-7.98-4.2-10.78-11.2-12.46v-.84c7.14.56,11.9.84,16.52.84s9.1-.28,16.1-.84Z"></path><path class="cls-1" d="M2226.69,345.16c-9.75,0-18.54-2.92-26.13-8.67l-.88-.67.1-1.1c.62-7.01.62-12.67,0-18.37l-.24-2.22h4.72l.31,1.62c2.3,11.86,10.65,19.52,21.28,19.52,7.08,0,15.36-3.51,15.36-13.4s-8.7-16.96-17.91-24.48c-10.74-8.77-21.85-17.84-21.85-32.64,0-18.79,16.75-27.2,33.36-27.2,7.81,0,14.48,1.79,20.38,5.48l1.06.66-.13,1.25c-.52,4.8-.83,12.04-.02,16.66l.42,2.35h-4.88l-.31-1.62c-1.86-9.74-7.32-14.89-15.81-14.89-9.79,0-13.26,6.09-13.26,11.3,0,8.05,8.06,14.5,16.6,21.32,10.92,8.74,23.3,18.64,23.3,34.82,0,17.55-14.91,30.28-35.46,30.28Z"></path><path class="cls-1" d="M2226.69,344.16c-9.52,0-18.11-2.85-25.52-8.46l-.44-.33.05-.55c.63-7.07.63-12.8,0-18.56l-.12-1.11h2.78l.16.81c2.39,12.35,11.13,20.33,22.26,20.33,7.55,0,16.36-3.77,16.36-14.4s-8.88-17.58-18.28-25.25c-10.56-8.62-21.48-17.54-21.48-31.87,0-18.1,16.25-26.2,32.36-26.2,7.62,0,14.11,1.74,19.85,5.33l.53.33-.07.62c-.53,4.86-.84,12.21,0,16.94l.21,1.17h-2.86l-.16-.81c-1.96-10.28-7.77-15.71-16.8-15.71-10.53,0-14.26,6.63-14.26,12.3,0,8.53,8.24,15.12,16.97,22.1,10.75,8.59,22.93,18.34,22.93,34.04,0,16.97-14.49,29.28-34.46,29.28Z"></path><path class="cls-1" d="M2226.69,344.16c-9.52,0-18.11-2.85-25.52-8.46l-.44-.33.05-.55c.63-7.07.63-12.8,0-18.56l-.12-1.11h2.78l.16.81c2.39,12.35,11.13,20.33,22.26,20.33,7.55,0,16.36-3.77,16.36-14.4s-8.88-17.58-18.28-25.25c-10.56-8.62-21.48-17.54-21.48-31.87,0-18.1,16.25-26.2,32.36-26.2,7.62,0,14.11,1.74,19.85,5.33l.53.33-.07.62c-.53,4.86-.84,12.21,0,16.94l.21,1.17h-2.86l-.16-.81c-1.96-10.28-7.77-15.71-16.8-15.71-10.53,0-14.26,6.63-14.26,12.3,0,8.53,8.24,15.12,16.97,22.1,10.75,8.59,22.93,18.34,22.93,34.04,0,16.97-14.49,29.28-34.46,29.28Z"></path><path class="cls-1" d="M2201.77,334.9c.56-6.3.7-12.32,0-18.76h.84c2.66,13.72,12.32,21.14,23.24,21.14,9.52,0,17.36-5.32,17.36-15.4,0-22.54-39.76-30.52-39.76-57.12,0-17.22,15.54-25.2,31.36-25.2,8.68,0,14.84,2.38,19.32,5.18-.56,5.18-.84,12.46,0,17.22h-.84c-2.24-11.76-9.24-16.52-17.78-16.52-10.08,0-15.26,6.16-15.26,13.3,0,19.74,39.9,28.14,39.9,56.14,0,17.22-14.84,28.28-33.46,28.28-12.18,0-20.3-4.76-24.92-8.26Z"></path><path class="cls-1" d="M2344.57,343.75c-11.83-.83-23.12-.83-32.2-.83-4,0-24.48.04-35.27.83l-2.15.16v-4.62l1.59-.33c7.64-1.61,9.83-3.89,10.17-10.61.7-12.97.7-21,.7-37,0-14.02,0-24.15-.84-36.69-.38-6.54-3.23-9.6-10.14-10.91l-1.63-.31v-4.58l2.09.09c13.16.56,24.76.84,35.47.84,11.27,0,22.8-.36,31.64-.97l2.44-.17-.32,2.43c-.64,4.91-.85,13.67,0,20.92l.26,2.23h-4.75l-.31-1.63c-1.98-10.5-6.89-14.05-19.46-14.05-3.92,0-7.95.17-12.62.54-.62,17.36-.76,25.92-.77,35.68.33,0,.67,0,1.02,0,2.91,0,6.4-.12,11.45-.33,9.27-.37,10.3-3.21,11.57-9.07l.41-1.86,4.55.76-.17,1.85c-.37,3.95-.83,8.85-.83,12.97s.29,8.8.82,12.9l.25,1.91-4.57.76-.44-1.8c-1.66-6.78-2.11-8.61-11.58-8.98-4.18-.24-8.37-.38-12.48-.41.01,15.64.18,25.06.55,30.48.42,7.5,5.62,8.92,15.08,8.92,11.3,0,15.29-3.35,17.79-14.94l.4-1.87,4.59.76-.21,1.88c-.82,7.54-.82,15,0,22.81l.25,2.37-2.38-.17Z"></path><path class="cls-1" d="M2344.64,342.76c-11.87-.84-23.18-.84-32.27-.84-4,0-24.51.04-35.35.84l-1.07.08v-2.73l.79-.17c8.04-1.69,10.6-4.39,10.97-11.53.7-13,.7-21.03.7-37.05,0-14.04,0-24.19-.84-36.75-.41-7-3.58-10.43-10.95-11.82l-.81-.15v-2.71l1.04.04c13.17.56,24.79.84,35.52.84,11.3,0,22.85-.36,31.71-.98l1.22-.09-.16,1.21c-.65,4.97-.86,13.83,0,21.17l.13,1.12h-2.79l-.15-.82c-2.07-10.97-7.41-14.86-20.44-14.86-4.17,0-8.51.2-13.59.62-.67,18.37-.8,27.06-.81,37.59.64.02,1.31.02,2.02.02,2.91,0,6.42-.12,11.5-.33,9.97-.4,11.2-3.83,12.5-9.85l.2-.93,2.7.45-.09.93c-.37,3.97-.84,8.91-.84,13.07s.29,8.88.83,13.03l.12.96-2.71.45-.22-.9c-1.71-6.98-2.29-9.34-12.51-9.74-4.53-.26-9.07-.4-13.52-.42,0,16.26.18,26.01.56,31.55.51,9.1,7.9,9.85,16.08,9.85,11.79,0,16.17-3.67,18.76-15.73l.2-.93,2.71.45-.1.94c-.83,7.61-.83,15.14,0,23.03l.12,1.19-1.19-.08Z"></path><path class="cls-1" d="M2344.64,342.76c-11.87-.84-23.18-.84-32.27-.84-4,0-24.51.04-35.35.84l-1.07.08v-2.73l.79-.17c8.04-1.69,10.6-4.39,10.97-11.53.7-13,.7-21.03.7-37.05,0-14.04,0-24.19-.84-36.75-.41-7-3.58-10.43-10.95-11.82l-.81-.15v-2.71l1.04.04c13.17.56,24.79.84,35.52.84,11.3,0,22.85-.36,31.71-.98l1.22-.09-.16,1.21c-.65,4.97-.86,13.83,0,21.17l.13,1.12h-2.79l-.15-.82c-2.07-10.97-7.41-14.86-20.44-14.86-4.17,0-8.51.2-13.59.62-.67,18.37-.8,27.06-.81,37.59.64.02,1.31.02,2.02.02,2.91,0,6.42-.12,11.5-.33,9.97-.4,11.2-3.83,12.5-9.85l.2-.93,2.7.45-.09.93c-.37,3.97-.84,8.91-.84,13.07s.29,8.88.83,13.03l.12.96-2.71.45-.22-.9c-1.71-6.98-2.29-9.34-12.51-9.74-4.53-.26-9.07-.4-13.52-.42,0,16.26.18,26.01.56,31.55.51,9.1,7.9,9.85,16.08,9.85,11.79,0,16.17-3.67,18.76-15.73l.2-.93,2.71.45-.1.94c-.83,7.61-.83,15.14,0,23.03l.12,1.19-1.19-.08Z"></path><path class="cls-1" d="M2344.71,318.52c-.84,7.7-.84,15.26,0,23.24-11.9-.84-23.1-.84-32.34-.84-8.68,0-25.9.14-35.42.84v-.84c7.98-1.68,11.34-4.34,11.76-12.46.7-13.02.7-21.28.7-37.1,0-14,0-24.22-.84-36.82-.42-7.14-3.64-11.2-11.76-12.74v-.84c9.8.42,22.26.84,35.56.84,12.32,0,23.8-.42,31.78-.98-.7,5.32-.84,14.28,0,21.42h-.84c-2.24-11.9-8.4-15.68-21.42-15.68-3.64,0-8.12.14-14.56.7-.7,19.18-.84,27.86-.84,39.48,3.5.14,7.84,0,14.56-.28,10.5-.42,12.04-4.2,13.44-10.64l.84.14c-.42,4.48-.84,9.1-.84,13.16s.28,8.82.84,13.16l-.84.14c-1.82-7.42-2.8-10.08-13.44-10.5-4.9-.28-9.8-.42-14.56-.42,0,15.54.14,26.46.56,32.62.56,10.08,9.1,10.78,17.08,10.78,11.9,0,16.94-3.5,19.74-16.52l.84.14Z"></path><path class="cls-1" d="M2418.72,345.3l-.57-1.02c-9.46-16.9-20.85-35.98-33.89-56.72-1.65,14.37-2.83,27.23-3.81,41.32-.37,6.98.82,8.32,9.09,10.23l1.55.36v4.66l-2.21-.24c-6.52-.69-10.87-.83-16.17-.83-5.01,0-9.39.14-15.74.83l-2.22.24v-4.67l1.56-.35c7.46-1.67,9.78-3.25,10.78-10.5,3.83-29.52,7.02-60.42,9.23-89.34l.14-1.85h3.3l.58,1.01c14.02,24.61,27.56,46.84,45.13,74.11,15.46-25,28.92-47.92,43.51-74.09l.57-1.03h3.32l.13,1.86c2.25,31.32,5.18,59.88,9.23,89.89.96,6.6,3.63,8.27,11.19,9.93l1.57.35v4.67l-2.21-.24c-6.87-.73-14.79-.83-21.63-.83-5.92,0-14.01,0-20.61.82l-2.25.28v-4.7l1.55-.36c7.46-1.73,9.3-3.06,8.95-9.71-.94-15.69-2.17-29.2-3.85-42.23-12.3,20.39-22.82,38.6-33,57.1l-.57,1.04h-2.63Z"></path><path class="cls-1" d="M2419.31,344.3l-.29-.51c-9.83-17.57-21.74-37.46-35.43-59.17-1.82,15.5-3.1,29.25-4.14,44.19-.39,7.48,1.17,9.27,9.87,11.28l.78.18v2.75l-1.11-.12c-6.57-.7-10.94-.83-16.27-.83-5.04,0-9.46.14-15.85.83l-1.11.12v-2.75l.78-.17c7.73-1.73,10.48-3.61,11.55-11.34,3.83-29.54,7.03-60.46,9.23-89.4l.07-.92h1.79l.29.5c14.22,24.97,28.03,47.62,46.01,75.49,15.81-25.53,29.53-48.87,44.36-75.48l.29-.51h1.8l.07.93c2.25,31.33,5.18,59.92,9.23,89.96,1.04,7.14,4.04,9.03,11.96,10.78l.79.17v2.76l-1.11-.12c-6.92-.74-14.87-.83-21.73-.83-5.94,0-14.08,0-20.74.83l-1.12.14v-2.77l.77-.18c7.87-1.83,10.1-3.46,9.73-10.73-1-16.79-2.35-31.22-4.23-45.14-12.94,21.38-23.93,40.37-34.5,59.57l-.29.52h-1.46Z"></path><path class="cls-1" d="M2419.31,344.3l-.29-.51c-9.83-17.57-21.74-37.46-35.43-59.17-1.82,15.5-3.1,29.25-4.14,44.19-.39,7.48,1.17,9.27,9.87,11.28l.78.18v2.75l-1.11-.12c-6.57-.7-10.94-.83-16.27-.83-5.04,0-9.46.14-15.85.83l-1.11.12v-2.75l.78-.17c7.73-1.73,10.48-3.61,11.55-11.34,3.83-29.54,7.03-60.46,9.23-89.4l.07-.92h1.79l.29.5c14.22,24.97,28.03,47.62,46.01,75.49,15.81-25.53,29.53-48.87,44.36-75.48l.29-.51h1.8l.07.93c2.25,31.33,5.18,59.92,9.23,89.96,1.04,7.14,4.04,9.03,11.96,10.78l.79.17v2.76l-1.11-.12c-6.92-.74-14.87-.83-21.73-.83-5.94,0-14.08,0-20.74.83l-1.12.14v-2.77l.77-.18c7.87-1.83,10.1-3.46,9.73-10.73-1-16.79-2.35-31.22-4.23-45.14-12.94,21.38-23.93,40.37-34.5,59.57l-.29.52h-1.46Z"></path><path class="cls-1" d="M2492.97,341.06v.84c-6.58-.7-14-.84-21.84-.84-6.02,0-14.14,0-20.86.84v-.84c7.84-1.82,10.92-3.64,10.5-11.76-.98-16.38-2.38-32.06-4.62-48.02-12.74,21-24.5,41.16-35.98,62.02h-.28c-11.2-20.02-23.94-41.02-36.96-61.6-1.96,16.38-3.36,30.94-4.48,47.04-.42,7.98,1.54,10.22,10.64,12.32v.84c-6.58-.7-10.92-.84-16.38-.84-5.04,0-9.52.14-15.96.84v-.84c8.12-1.82,11.2-4.06,12.32-12.18,3.78-29.12,7-60.06,9.24-89.46h.28c13.72,24.08,27.72,47.18,46.9,76.86,16.94-27.3,30.94-51.24,45.22-76.86h.28c2.24,31.22,5.18,59.92,9.24,90.02,1.12,7.7,4.48,9.8,12.74,11.62Z"></path><path class="cls-1" d="M2500.35,339.29l1.6-.33c6.32-1.29,9.81-3.29,10.16-10.18.52-10.35.84-20.22.84-37.42,0-13.15-.14-24.49-.84-37.13-.36-7.1-4-9.21-10.16-10.47l-1.6-.33v-4.64l2.16.17c5.15.42,14.86.69,19.02.69,2.89,0,5.81-.16,8.9-.32,3.45-.19,6.99-.38,10.84-.38,21.33,0,34.06,9.49,34.06,25.38,0,10.23-5.26,18.57-14.54,23.26,13.02,3.52,20.42,12.72,20.42,25.6,0,17.99-15.33,30.56-37.28,30.56-3.23,0-6.98-.21-10.61-.42-3.62-.21-7.31-.42-10.39-.42-5.37,0-16.99.56-20.42.83l-2.16.17v-4.64ZM2533.75,293.78c0,19.43,0,24.79.28,31.23.52,8.37,6.13,10.13,10.74,10.13,11.74,0,15.92-10.03,15.92-19.42,0-13.91-8.31-22.22-22.22-22.22-1.15,0-2.85.05-4.72.28ZM2533.75,284.45c1.53.19,2.99.29,4.44.29,11.48,0,16.62-9.4,16.62-18.72s-5.18-18.3-16.76-18.3c-1.38,0-2.51.09-3.65.3-.52,17.03-.64,26.73-.65,36.43Z"></path><path class="cls-1" d="M2501.35,340.1l.8-.16c6.65-1.36,10.57-3.61,10.96-11.11.52-10.36.84-20.24.84-37.47,0-13.16-.14-24.53-.84-37.19-.39-7.71-4.49-10.07-10.96-11.4l-.8-.16v-2.74l1.08.09c5.17.42,14.92.7,19.1.7,2.92,0,5.87-.16,8.99-.33,3.41-.18,6.93-.37,10.75-.37,20.7,0,33.06,9.11,33.06,24.38,0,10.82-6.14,19.39-16.66,23.56,14.2,2.76,22.54,11.99,22.54,25.3,0,17.4-14.92,29.56-36.28,29.56-3.18,0-6.93-.21-10.56-.42-3.6-.21-7.32-.42-10.44-.42-5.4,0-17.06.56-20.5.84l-1.08.09v-2.74ZM2532.75,292.91c0,20.65,0,25.68.28,32.15.6,9.64,7.61,11.08,11.74,11.08,12.47,0,16.92-10.55,16.92-20.42,0-14.54-8.68-23.22-23.22-23.22-1.41,0-3.48.08-5.72.41ZM2532.75,285.32c1.9.28,3.68.42,5.44.42,12.17,0,17.62-9.9,17.62-19.72s-5.49-19.3-17.76-19.3c-1.74,0-3.13.14-4.62.49-.55,17.88-.67,27.7-.68,38.12Z"></path><path class="cls-1" d="M2501.35,340.1l.8-.16c6.65-1.36,10.57-3.61,10.96-11.11.52-10.36.84-20.24.84-37.47,0-13.16-.14-24.53-.84-37.19-.39-7.71-4.49-10.07-10.96-11.4l-.8-.16v-2.74l1.08.09c5.17.42,14.92.7,19.1.7,2.92,0,5.87-.16,8.99-.33,3.41-.18,6.93-.37,10.75-.37,20.7,0,33.06,9.11,33.06,24.38,0,10.82-6.14,19.39-16.66,23.56,14.2,2.76,22.54,11.99,22.54,25.3,0,17.4-14.92,29.56-36.28,29.56-3.18,0-6.93-.21-10.56-.42-3.6-.21-7.32-.42-10.44-.42-5.4,0-17.06.56-20.5.84l-1.08.09v-2.74ZM2532.75,292.91c0,20.65,0,25.68.28,32.15.6,9.64,7.61,11.08,11.74,11.08,12.47,0,16.92-10.55,16.92-20.42,0-14.54-8.68-23.22-23.22-23.22-1.41,0-3.48.08-5.72.41ZM2532.75,285.32c1.9.28,3.68.42,5.44.42,12.17,0,17.62-9.9,17.62-19.72s-5.49-19.3-17.76-19.3c-1.74,0-3.13.14-4.62.49-.55,17.88-.67,27.7-.68,38.12Z"></path><path class="cls-1" d="M2579.21,313.2c0,16.94-14.42,28.56-35.28,28.56-6.3,0-14.7-.84-21-.84-5.32,0-17.08.56-20.58.84v-.84c6.86-1.4,11.34-3.92,11.76-12.04.56-11.2.84-21.14.84-37.52,0-13.02-.14-24.5-.84-37.24-.42-8.26-4.9-10.92-11.76-12.32v-.84c5.18.42,14.98.7,19.18.7,6.16,0,12.46-.7,19.74-.7,17.5,0,32.06,7,32.06,23.38,0,11.48-7.28,20.58-20.02,23.94,17.22,1.68,25.9,11.76,25.9,24.92ZM2538.05,245.72c-1.82,0-3.5.14-5.6.7-.56,18.06-.7,28.28-.7,39.76,2.52.42,4.62.56,6.44.56,12.6,0,18.62-10.36,18.62-20.72s-6.44-20.3-18.76-20.3ZM2562.69,315.72c0-15.54-9.66-24.22-24.22-24.22-1.96,0-4.34.14-6.72.56,0,21.42,0,26.46.28,33.04.56,8.96,6.44,12.04,12.74,12.04,11.9,0,17.92-9.38,17.92-21.42Z"></path><path class="cls-1" d="M2658.17,343.89c-12.24-.86-23.64-.97-32.2-.97-4.02,0-24.62.04-35.41.83l-2.15.16v-4.62l1.59-.33c7.64-1.61,9.83-3.89,10.17-10.61.7-12.97.7-21,.7-37,0-14.35,0-24.71-.84-37.25-.37-6.25-2.93-8.86-10.17-10.35l-1.59-.33v-4.59l2.12.12c6.88.4,14.75.84,21.02.84s13.79-.4,21.02-.84l2.12-.13v4.6l-1.6.33c-7.12,1.45-9.65,4.02-10.02,10.2-.85,14.41-.98,21.28-.98,37.4,0,16.93.17,27,.56,32.62.42,7.5,5.67,8.92,15.22,8.92,11.46,0,15.29-3.18,17.79-14.8l.4-1.87,4.59.77-.21,1.88c-.82,7.54-.82,15,0,22.81l.25,2.37-2.38-.17Z"></path><path class="cls-1" d="M2658.24,342.89c-12.27-.87-23.69-.98-32.27-.98-4.03,0-24.65.04-35.49.84l-1.07.08v-2.73l.79-.17c8.04-1.69,10.6-4.39,10.97-11.53.7-13,.7-21.03.7-37.05,0-14.37,0-24.75-.84-37.31-.4-6.73-3.26-9.67-10.96-11.27l-.8-.17v-2.71l1.06.06c6.89.41,14.78.84,21.08.84s13.82-.4,21.08-.84l1.06-.06v2.72l-.8.16c-7.59,1.54-10.42,4.46-10.82,11.12-.85,14.44-.98,21.32-.98,37.46,0,16.96.17,27.04.56,32.69.51,9.1,7.96,9.85,16.22,9.85,11.95,0,16.16-3.5,18.76-15.59l.2-.93,2.71.45-.1.94c-.83,7.61-.83,15.14,0,23.03l.12,1.19-1.19-.08Z"></path><path class="cls-1" d="M2658.24,342.89c-12.27-.87-23.69-.98-32.27-.98-4.03,0-24.65.04-35.49.84l-1.07.08v-2.73l.79-.17c8.04-1.69,10.6-4.39,10.97-11.53.7-13,.7-21.03.7-37.05,0-14.37,0-24.75-.84-37.31-.4-6.73-3.26-9.67-10.96-11.27l-.8-.17v-2.71l1.06.06c6.89.41,14.78.84,21.08.84s13.82-.4,21.08-.84l1.06-.06v2.72l-.8.16c-7.59,1.54-10.42,4.46-10.82,11.12-.85,14.44-.98,21.32-.98,37.46,0,16.96.17,27.04.56,32.69.51,9.1,7.96,9.85,16.22,9.85,11.95,0,16.16-3.5,18.76-15.59l.2-.93,2.71.45-.1.94c-.83,7.61-.83,15.14,0,23.03l.12,1.19-1.19-.08Z"></path><path class="cls-1" d="M2658.31,318.66c-.84,7.7-.84,15.26,0,23.24-11.9-.84-23.1-.98-32.34-.98-8.68,0-26.04.14-35.56.84v-.84c7.98-1.68,11.34-4.34,11.76-12.46.7-13.02.7-21.28.7-37.1,0-14.56,0-24.78-.84-37.38-.42-7.14-3.64-10.5-11.76-12.18v-.84c7.14.42,14.84.84,21.14.84s14.14-.42,21.14-.84v.84c-8.26,1.68-11.2,5.04-11.62,12.04-.84,14.28-.98,21.28-.98,37.52s.14,26.6.56,32.76c.56,10.08,9.1,10.78,17.22,10.78,11.9,0,16.94-3.36,19.74-16.38l.84.14Z"></path><path class="cls-1" d="M2742.31,343.75c-11.83-.83-23.12-.83-32.2-.83-4,0-24.48.04-35.27.83l-2.15.16v-4.62l1.59-.33c7.64-1.61,9.83-3.89,10.17-10.61.7-12.97.7-21,.7-37,0-14.02,0-24.15-.84-36.69-.38-6.54-3.23-9.6-10.14-10.91l-1.63-.31v-4.58l2.09.09c13.16.56,24.76.84,35.47.84,11.27,0,22.8-.36,31.64-.97l2.44-.17-.32,2.43c-.64,4.91-.85,13.67,0,20.92l.26,2.23h-4.75l-.31-1.63c-1.98-10.5-6.89-14.05-19.46-14.05-3.92,0-7.95.17-12.63.54-.62,17.36-.76,25.92-.77,35.68.33,0,.67,0,1.02,0,2.91,0,6.4-.12,11.45-.33,9.27-.37,10.3-3.21,11.57-9.07l.41-1.86,4.55.76-.17,1.85c-.37,3.95-.83,8.85-.83,12.97s.29,8.8.82,12.9l.25,1.91-4.57.76-.44-1.8c-1.66-6.78-2.11-8.61-11.58-8.98-4.18-.24-8.37-.38-12.48-.41.01,15.64.18,25.06.55,30.48.42,7.5,5.62,8.92,15.08,8.92,11.3,0,15.29-3.35,17.79-14.94l.4-1.87,4.59.76-.21,1.88c-.82,7.54-.82,15,0,22.81l.25,2.37-2.38-.17Z"></path><path class="cls-1" d="M2742.38,342.76c-11.87-.84-23.18-.84-32.27-.84-4,0-24.51.04-35.35.84l-1.07.08v-2.73l.79-.17c8.04-1.69,10.6-4.39,10.97-11.53.7-13,.7-21.03.7-37.05,0-14.04,0-24.19-.84-36.75-.41-7-3.58-10.43-10.95-11.82l-.81-.15v-2.71l1.04.04c13.17.56,24.79.84,35.52.84,11.3,0,22.85-.36,31.71-.98l1.22-.09-.16,1.21c-.65,4.97-.86,13.83,0,21.17l.13,1.12h-2.79l-.15-.82c-2.07-10.97-7.41-14.86-20.44-14.86-4.17,0-8.51.2-13.59.62-.67,18.37-.8,27.06-.81,37.59.64.02,1.31.02,2.02.02,2.91,0,6.42-.12,11.5-.33,9.97-.4,11.2-3.83,12.5-9.85l.2-.93,2.7.45-.09.93c-.37,3.97-.84,8.91-.84,13.07s.29,8.88.83,13.03l.12.96-2.71.45-.22-.9c-1.71-6.98-2.29-9.34-12.51-9.74-4.53-.26-9.07-.4-13.52-.42,0,16.26.18,26.01.56,31.55.51,9.1,7.9,9.85,16.08,9.85,11.79,0,16.17-3.67,18.76-15.73l.2-.93,2.71.45-.1.94c-.83,7.61-.83,15.14,0,23.03l.12,1.19-1.19-.08Z"></path><path class="cls-1" d="M2742.38,342.76c-11.87-.84-23.18-.84-32.27-.84-4,0-24.51.04-35.35.84l-1.07.08v-2.73l.79-.17c8.04-1.69,10.6-4.39,10.97-11.53.7-13,.7-21.03.7-37.05,0-14.04,0-24.19-.84-36.75-.41-7-3.58-10.43-10.95-11.82l-.81-.15v-2.71l1.04.04c13.17.56,24.79.84,35.52.84,11.3,0,22.85-.36,31.71-.98l1.22-.09-.16,1.21c-.65,4.97-.86,13.83,0,21.17l.13,1.12h-2.79l-.15-.82c-2.07-10.97-7.41-14.86-20.44-14.86-4.17,0-8.51.2-13.59.62-.67,18.37-.8,27.06-.81,37.59.64.02,1.31.02,2.02.02,2.91,0,6.42-.12,11.5-.33,9.97-.4,11.2-3.83,12.5-9.85l.2-.93,2.7.45-.09.93c-.37,3.97-.84,8.91-.84,13.07s.29,8.88.83,13.03l.12.96-2.71.45-.22-.9c-1.71-6.98-2.29-9.34-12.51-9.74-4.53-.26-9.07-.4-13.52-.42,0,16.26.18,26.01.56,31.55.51,9.1,7.9,9.85,16.08,9.85,11.79,0,16.17-3.67,18.76-15.73l.2-.93,2.71.45-.1.94c-.83,7.61-.83,15.14,0,23.03l.12,1.19-1.19-.08Z"></path><path class="cls-1" d="M2742.45,318.52c-.84,7.7-.84,15.26,0,23.24-11.9-.84-23.1-.84-32.34-.84-8.68,0-25.9.14-35.42.84v-.84c7.98-1.68,11.34-4.34,11.76-12.46.7-13.02.7-21.28.7-37.1,0-14,0-24.22-.84-36.82-.42-7.14-3.64-11.2-11.76-12.74v-.84c9.8.42,22.26.84,35.56.84,12.32,0,23.8-.42,31.78-.98-.7,5.32-.84,14.28,0,21.42h-.84c-2.24-11.9-8.4-15.68-21.42-15.68-3.64,0-8.12.14-14.56.7-.7,19.18-.84,27.86-.84,39.48,3.5.14,7.84,0,14.56-.28,10.5-.42,12.04-4.2,13.44-10.64l.84.14c-.42,4.48-.84,9.1-.84,13.16s.28,8.82.84,13.16l-.84.14c-1.82-7.42-2.8-10.08-13.44-10.5-4.9-.28-9.8-.42-14.56-.42,0,15.54.14,26.46.56,32.62.56,10.08,9.1,10.78,17.08,10.78,11.9,0,16.94-3.5,19.74-16.52l.84.14Z"></path></g><g><path class="cls-1" d="M2286.53,659.05h19.44c4.69,0,8.84.65,12.44,1.96,3.6,1.31,6.61,3.19,9.04,5.64,2.43,2.45,4.25,5.43,5.48,8.92,1.23,3.49,1.84,7.43,1.84,11.8s-.63,8.49-1.88,12.04-3.09,6.56-5.52,9.04c-2.43,2.48-5.43,4.39-9,5.72-3.57,1.33-7.71,2-12.4,2h-19.44v-57.12ZM2298.21,706.81h6.08c3.2,0,6-.45,8.4-1.36,2.4-.91,4.36-2.21,5.88-3.92,1.52-1.71,2.65-3.73,3.4-6.08.75-2.35,1.12-4.99,1.12-7.92s-.37-5.49-1.12-7.84c-.75-2.35-1.88-4.36-3.4-6.04-1.52-1.68-3.48-2.97-5.88-3.88-2.4-.91-5.2-1.36-8.4-1.36h-6.08v38.4Z"></path><path class="cls-1" d="M2353.81,698.41c.21,1.92.71,3.51,1.48,4.76.77,1.25,1.77,2.28,3,3.08,1.23.8,2.65,1.4,4.28,1.8,1.63.4,3.35.6,5.16.6,1.6,0,3.29-.12,5.08-.36,1.79-.24,3.45-.63,5-1.16l1.28,8.32c-1.87.53-3.83.95-5.88,1.24-2.05.29-4.33.44-6.84.44-3.79,0-7.16-.53-10.12-1.6-2.96-1.07-5.45-2.57-7.48-4.52-2.03-1.95-3.57-4.27-4.64-6.96-1.07-2.69-1.6-5.67-1.6-8.92s.49-6.16,1.48-8.88c.99-2.72,2.39-5.07,4.2-7.04,1.81-1.97,4.04-3.51,6.68-4.6,2.64-1.09,5.59-1.64,8.84-1.64s5.83.49,8.2,1.48c2.37.99,4.36,2.39,5.96,4.2,1.6,1.81,2.81,4,3.64,6.56.83,2.56,1.24,5.44,1.24,8.64v4.56h-28.96ZM2363.57,680.65c-2.67,0-4.88.91-6.64,2.72-1.76,1.81-2.8,4.19-3.12,7.12h18.32c.05-2.93-.71-5.31-2.28-7.12-1.57-1.81-3.67-2.72-6.28-2.72Z"></path><path class="cls-1" d="M2403.09,731.77h-11.36v-57.84h11.12v5.44h.16c1.65-2.19,3.61-3.8,5.88-4.84,2.27-1.04,4.63-1.56,7.08-1.56,2.88,0,5.44.57,7.68,1.72,2.24,1.15,4.11,2.72,5.6,4.72,1.49,2,2.63,4.33,3.4,7,.77,2.67,1.16,5.55,1.16,8.64s-.4,5.99-1.2,8.68c-.8,2.69-1.97,5.04-3.52,7.04-1.55,2-3.45,3.56-5.72,4.68-2.27,1.12-4.81,1.68-7.64,1.68-2.35.05-4.63-.36-6.84-1.24-2.21-.88-4.09-2.33-5.64-4.36h-.16v20.24ZM2422.45,695.05c0-1.92-.19-3.71-.56-5.36-.37-1.65-.95-3.08-1.72-4.28-.77-1.2-1.76-2.15-2.96-2.84s-2.63-1.04-4.28-1.04-3.07.33-4.4,1c-1.33.67-2.45,1.6-3.36,2.8-.91,1.2-1.6,2.63-2.08,4.28-.48,1.65-.72,3.47-.72,5.44s.24,3.79.72,5.44c.48,1.65,1.16,3.08,2.04,4.28.88,1.2,1.99,2.15,3.32,2.84,1.33.69,2.83,1.04,4.48,1.04s3.08-.35,4.28-1.04,2.19-1.65,2.96-2.88c.77-1.23,1.35-2.67,1.72-4.32.37-1.65.56-3.44.56-5.36Z"></path><path class="cls-1" d="M2471.33,716.17v-5.68h-.16c-1.07,2.13-2.77,3.77-5.12,4.92s-4.88,1.72-7.6,1.72c-2.4,0-4.57-.37-6.52-1.12-1.95-.75-3.59-1.79-4.92-3.12-1.33-1.33-2.37-2.93-3.12-4.8-.75-1.87-1.12-3.97-1.12-6.32v-27.84h11.36v23.6c0,1.71.12,3.23.36,4.56.24,1.33.67,2.49,1.28,3.48.61.99,1.43,1.73,2.44,2.24,1.01.51,2.29.76,3.84.76,1.12,0,2.21-.21,3.28-.64,1.07-.43,2.03-1.08,2.88-1.96.85-.88,1.55-2.08,2.08-3.6.53-1.52.8-3.37.8-5.56v-22.88h11.36v42.24h-11.12Z"></path><path class="cls-1" d="M2505.01,657.61v9.84h-11.36v-9.84h11.36ZM2505.01,673.93v42.24h-11.36v-42.24h11.36Z"></path><path class="cls-1" d="M2542.13,683.77c-2.19-.85-4.23-1.44-6.12-1.76-1.89-.32-3.69-.48-5.4-.48s-2.99.25-4,.76c-1.01.51-1.55,1.4-1.6,2.68,0,1.23.55,2.21,1.64,2.96,1.09.75,3.16,1.6,6.2,2.56,2.24.69,4.23,1.45,5.96,2.28,1.73.83,3.21,1.79,4.44,2.88,1.23,1.09,2.15,2.33,2.76,3.72.61,1.39.92,3.01.92,4.88,0,2.4-.52,4.43-1.56,6.08-1.04,1.65-2.39,2.97-4.04,3.96-1.65.99-3.53,1.71-5.64,2.16-2.11.45-4.2.68-6.28.68-2.61,0-5.35-.27-8.2-.8-2.85-.53-5.4-1.25-7.64-2.16l2.24-8.64c2.35,1.01,4.76,1.77,7.24,2.28,2.48.51,4.57.76,6.28.76,2.19,0,3.87-.28,5.04-.84,1.17-.56,1.76-1.53,1.76-2.92,0-1.23-.65-2.25-1.96-3.08-1.31-.83-3.61-1.75-6.92-2.76-4.53-1.49-7.83-3.25-9.88-5.28-2.05-2.03-3.08-4.56-3.08-7.6.05-2.29.53-4.27,1.44-5.92.91-1.65,2.15-3.01,3.72-4.08,1.57-1.07,3.35-1.85,5.32-2.36,1.97-.51,3.97-.76,6-.76,2.24,0,4.59.2,7.04.6,2.45.4,4.72,1,6.8,1.8l-2.48,8.4Z"></path><path class="cls-1" d="M2611.81,716.17h-38.32v-9.52c5.07-4.43,9.27-8.23,12.6-11.4,3.33-3.17,5.99-5.92,7.96-8.24,1.97-2.32,3.36-4.4,4.16-6.24.8-1.84,1.2-3.61,1.2-5.32,0-2.51-.84-4.47-2.52-5.88s-3.8-2.12-6.36-2.12c-1.92,0-3.93.35-6.04,1.04-2.11.69-4.44,1.81-7,3.36l-3.68-8.32c2.45-1.71,5.24-3.04,8.36-4,3.12-.96,6.2-1.44,9.24-1.44s5.61.37,8.04,1.12c2.43.75,4.49,1.83,6.2,3.24,1.71,1.41,3.04,3.2,4,5.36.96,2.16,1.44,4.63,1.44,7.4,0,2.56-.43,4.97-1.28,7.24-.85,2.27-2.2,4.6-4.04,7-1.84,2.4-4.21,5-7.12,7.8-2.91,2.8-6.44,5.99-10.6,9.56h23.76v9.36Z"></path><path class="cls-1" d="M2640.53,658.09c3.57,0,6.72.69,9.44,2.08,2.72,1.39,4.99,3.37,6.8,5.96,1.81,2.59,3.17,5.72,4.08,9.4.91,3.68,1.36,7.81,1.36,12.4s-.45,8.69-1.36,12.32c-.91,3.63-2.28,6.69-4.12,9.2-1.84,2.51-4.11,4.41-6.8,5.72s-5.83,1.96-9.4,1.96c-7.09,0-12.47-2.53-16.12-7.6-3.65-5.07-5.48-12.27-5.48-21.6,0-4.59.45-8.72,1.36-12.4.91-3.68,2.25-6.81,4.04-9.4,1.79-2.59,4.04-4.57,6.76-5.96,2.72-1.39,5.87-2.08,9.44-2.08ZM2640.53,667.45c-1.76,0-3.29.51-4.6,1.52-1.31,1.01-2.35,2.43-3.12,4.24-.77,1.81-1.35,3.97-1.72,6.48-.37,2.51-.56,5.25-.56,8.24s.19,5.71.56,8.16c.37,2.45.96,4.55,1.76,6.28.8,1.73,1.83,3.07,3.08,4,1.25.93,2.79,1.4,4.6,1.4s3.35-.47,4.6-1.4c1.25-.93,2.29-2.27,3.12-4,.83-1.73,1.43-3.83,1.8-6.28.37-2.45.56-5.17.56-8.16s-.19-5.73-.56-8.24c-.37-2.51-.96-4.67-1.76-6.48-.8-1.81-1.85-3.23-3.16-4.24-1.31-1.01-2.84-1.52-4.6-1.52Z"></path><path class="cls-1" d="M2692.85,716.17h-11.68v-46.08l-10.64,6.32-4.16-8.72,14.64-8.64h11.84v57.12Z"></path><path class="cls-1" d="M2726.69,658.09c3.57,0,6.72.69,9.44,2.08,2.72,1.39,4.99,3.37,6.8,5.96,1.81,2.59,3.17,5.72,4.08,9.4.91,3.68,1.36,7.81,1.36,12.4s-.45,8.69-1.36,12.32c-.91,3.63-2.28,6.69-4.12,9.2-1.84,2.51-4.11,4.41-6.8,5.72s-5.83,1.96-9.4,1.96c-7.09,0-12.47-2.53-16.12-7.6-3.65-5.07-5.48-12.27-5.48-21.6,0-4.59.45-8.72,1.36-12.4.91-3.68,2.25-6.81,4.04-9.4,1.79-2.59,4.04-4.57,6.76-5.96,2.72-1.39,5.87-2.08,9.44-2.08ZM2726.69,667.45c-1.76,0-3.29.51-4.6,1.52-1.31,1.01-2.35,2.43-3.12,4.24-.77,1.81-1.35,3.97-1.72,6.48-.37,2.51-.56,5.25-.56,8.24s.19,5.71.56,8.16c.37,2.45.96,4.55,1.76,6.28.8,1.73,1.83,3.07,3.08,4,1.25.93,2.79,1.4,4.6,1.4s3.35-.47,4.6-1.4c1.25-.93,2.29-2.27,3.12-4,.83-1.73,1.43-3.83,1.8-6.28.37-2.45.56-5.17.56-8.16s-.19-5.73-.56-8.24c-.37-2.51-.96-4.67-1.76-6.48-.8-1.81-1.85-3.23-3.16-4.24-1.31-1.01-2.84-1.52-4.6-1.52Z"></path></g><g><path class="cls-1" d="M1116.07,399.88c-3.55-1.31-7.14-2.24-10.78-2.8-3.64-.56-7.19-.84-10.64-.84-2.05,0-4.04.16-5.95.49-1.91.33-3.62.91-5.11,1.75-1.49.84-2.68,1.94-3.57,3.29-.89,1.35-1.33,3.06-1.33,5.11,0,1.77.37,3.34,1.12,4.69.75,1.35,1.89,2.64,3.43,3.85,1.54,1.21,3.5,2.4,5.88,3.57,2.38,1.17,5.2,2.4,8.47,3.71,4.11,1.68,7.84,3.43,11.2,5.25,3.36,1.82,6.3,3.92,8.82,6.3,2.52,2.38,4.43,5.13,5.74,8.26,1.31,3.13,1.96,6.88,1.96,11.27,0,4.95-1,9.29-3.01,13.02-2.01,3.73-4.74,6.81-8.19,9.24-3.45,2.43-7.4,4.22-11.83,5.39-4.43,1.17-9.08,1.75-13.93,1.75-4.57,0-9.5-.4-14.77-1.19-5.27-.79-10.48-2.08-15.61-3.85l3.64-16.66c4.67,1.87,9.26,3.22,13.79,4.06,4.53.84,8.61,1.26,12.25,1.26,5.6,0,9.85-.96,12.74-2.87,2.89-1.91,4.39-4.83,4.48-8.75,0-1.87-.37-3.52-1.12-4.97-.75-1.45-1.94-2.8-3.57-4.06-1.63-1.26-3.69-2.5-6.16-3.71-2.47-1.21-5.39-2.47-8.75-3.78-4.01-1.59-7.65-3.31-10.92-5.18-3.27-1.87-6.11-3.99-8.54-6.37-2.43-2.38-4.29-5.06-5.6-8.05-1.31-2.99-1.96-6.39-1.96-10.22,0-5.13,1.03-9.54,3.08-13.23,2.05-3.69,4.78-6.7,8.19-9.03,3.41-2.33,7.19-4.04,11.34-5.11,4.15-1.07,8.33-1.61,12.53-1.61,4.85,0,9.52.3,14,.91,4.48.61,8.54,1.52,12.18,2.73l-3.5,16.38Z"></path><path class="cls-1" d="M1153.17,481.5h-21.7l35.98-99.96h28l35.84,99.96h-21.98l-8.96-24.36h-38.5l-8.68,24.36ZM1166.61,440.62h28.98l-14.42-43.12-14.56,43.12Z"></path><path class="cls-1" d="M1242.49,381.54h20.44v99.96h-20.44v-99.96Z"></path><path class="cls-1" d="M1346.65,461.34h.28v-79.8h19.18v99.96h-30.52l-31.5-80.92h-.28v80.92h-19.04v-99.96h31.5l30.38,79.8Z"></path><path class="cls-1" d="M1405.03,397.92h-26.6v-16.38h73.08v16.38h-26.04v83.58h-20.44v-83.58Z"></path><path class="cls-1" d="M1450.11,431.38h36.12v16.1h-36.12v-16.1Z"></path><path class="cls-1" d="M1560.29,462.04h.42l19.32-80.5h34.44v99.96h-19.32v-82.88h-.28l-21.98,82.88h-25.48l-21.56-82.88h-.28v82.88h-18.76v-99.96h34.16l19.32,80.5Z"></path><path class="cls-1" d="M1636.31,381.54h20.44v99.96h-20.44v-99.96Z"></path><path class="cls-1" d="M1745.37,399.74c-2.71-1.03-5.6-1.87-8.68-2.52-3.08-.65-6.16-.98-9.24-.98-5.32,0-10.01.96-14.07,2.87-4.06,1.91-7.4,4.48-10.01,7.7-2.61,3.22-4.6,7-5.95,11.34-1.35,4.34-2.03,8.94-2.03,13.79,0,4.57.68,8.96,2.03,13.16,1.35,4.2,3.36,7.91,6.02,11.13,2.66,3.22,6,5.79,10.01,7.7,4.01,1.91,8.63,2.87,13.86,2.87,3.73,0,7.14-.33,10.22-.98,3.08-.65,5.97-1.59,8.68-2.8l3.5,15.82c-3.55,1.49-7.44,2.59-11.69,3.29-4.25.7-8.61,1.05-13.09,1.05-7.56,0-14.42-1.26-20.58-3.78-6.16-2.52-11.43-6.07-15.82-10.64-4.39-4.57-7.75-9.99-10.08-16.24-2.33-6.25-3.5-13.16-3.5-20.72s1.14-14.51,3.43-20.86c2.29-6.35,5.6-11.83,9.94-16.45,4.34-4.62,9.68-8.21,16.03-10.78,6.35-2.57,13.44-3.85,21.28-3.85,4.48,0,8.7.33,12.67.98,3.97.65,7.58,1.63,10.85,2.94l-3.78,15.96Z"></path><path class="cls-1" d="M1765.67,381.54h20.44v40.74h38.36v-40.74h20.44v99.96h-20.44v-42.84h-38.36v42.84h-20.44v-99.96Z"></path><path class="cls-1" d="M1866.61,381.54h60.2v16.38h-39.76v24.36h36.54v16.38h-36.54v26.46h41.02v16.38h-61.46v-99.96Z"></path><path class="cls-1" d="M1944.87,381.54h20.44v83.58h39.76v16.38h-60.2v-99.96Z"></path><path class="cls-1" d="M2007.45,431.38h36.12v16.1h-36.12v-16.1Z"></path><path class="cls-1" d="M2112.03,399.88c-3.55-1.31-7.14-2.24-10.78-2.8-3.64-.56-7.19-.84-10.64-.84-2.05,0-4.04.16-5.95.49-1.91.33-3.62.91-5.11,1.75-1.49.84-2.68,1.94-3.57,3.29-.89,1.35-1.33,3.06-1.33,5.11,0,1.77.37,3.34,1.12,4.69.75,1.35,1.89,2.64,3.43,3.85,1.54,1.21,3.5,2.4,5.88,3.57,2.38,1.17,5.2,2.4,8.47,3.71,4.11,1.68,7.84,3.43,11.2,5.25,3.36,1.82,6.3,3.92,8.82,6.3,2.52,2.38,4.43,5.13,5.74,8.26,1.31,3.13,1.96,6.88,1.96,11.27,0,4.95-1,9.29-3.01,13.02-2.01,3.73-4.74,6.81-8.19,9.24-3.45,2.43-7.4,4.22-11.83,5.39-4.43,1.17-9.08,1.75-13.93,1.75-4.57,0-9.5-.4-14.77-1.19-5.27-.79-10.48-2.08-15.61-3.85l3.64-16.66c4.67,1.87,9.26,3.22,13.79,4.06,4.53.84,8.61,1.26,12.25,1.26,5.6,0,9.85-.96,12.74-2.87,2.89-1.91,4.39-4.83,4.48-8.75,0-1.87-.37-3.52-1.12-4.97-.75-1.45-1.94-2.8-3.57-4.06-1.63-1.26-3.69-2.5-6.16-3.71-2.47-1.21-5.39-2.47-8.75-3.78-4.01-1.59-7.65-3.31-10.92-5.18-3.27-1.87-6.11-3.99-8.54-6.37-2.43-2.38-4.29-5.06-5.6-8.05-1.31-2.99-1.96-6.39-1.96-10.22,0-5.13,1.03-9.54,3.08-13.23,2.05-3.69,4.78-6.7,8.19-9.03,3.41-2.33,7.19-4.04,11.34-5.11,4.15-1.07,8.33-1.61,12.53-1.61,4.85,0,9.52.3,14,.91,4.48.61,8.54,1.52,12.18,2.73l-3.5,16.38Z"></path><path class="cls-1" d="M2216.75,451.96c0,5.04-1,9.52-3.01,13.44-2.01,3.92-4.81,7.19-8.4,9.8-3.59,2.61-7.84,4.6-12.74,5.95-4.9,1.35-10.2,2.03-15.89,2.03s-10.97-.68-15.82-2.03c-4.85-1.35-9.05-3.34-12.6-5.95-3.55-2.61-6.32-5.88-8.33-9.8-2.01-3.92-3.01-8.4-3.01-13.44v-70.42h20.44v67.9c.09,6.16,1.91,10.62,5.46,13.37,3.55,2.75,8.12,4.08,13.72,3.99,2.8,0,5.37-.33,7.7-.98,2.33-.65,4.41-1.68,6.23-3.08,1.82-1.4,3.24-3.22,4.27-5.46,1.03-2.24,1.54-4.85,1.54-7.84v-67.9h20.44v70.42Z"></path><path class="cls-1" d="M2237.47,381.54h38.78c4.48,0,8.82.47,13.02,1.4,4.2.93,7.91,2.45,11.13,4.55,3.22,2.1,5.79,4.9,7.7,8.4,1.91,3.5,2.87,7.77,2.87,12.81,0,5.88-1.47,10.76-4.41,14.63-2.94,3.87-7.12,6.74-12.53,8.61v.28c1.59.56,2.99,1.26,4.2,2.1,1.21.84,2.29,1.94,3.22,3.29.93,1.35,1.82,3.06,2.66,5.11.84,2.05,1.68,4.71,2.52,7.98,1.59,5.04,3.13,10.1,4.62,15.19,1.49,5.09,3.03,10.29,4.62,15.61h-21.98c-.47-1.77-1-3.85-1.61-6.23-.61-2.38-1.21-4.78-1.82-7.21-.61-2.43-1.19-4.74-1.75-6.93-.56-2.19-1.07-4.13-1.54-5.81-.75-2.71-1.54-4.97-2.38-6.79-.84-1.82-1.94-3.27-3.29-4.34-1.35-1.07-3.15-1.84-5.39-2.31-2.24-.47-5.13-.7-8.68-.7h-9.52v40.32h-20.44v-99.96ZM2257.91,424.8h13.44c2.8,0,5.37-.21,7.7-.63,2.33-.42,4.36-1.14,6.09-2.17,1.73-1.03,3.06-2.4,3.99-4.13.93-1.73,1.4-3.9,1.4-6.51s-.51-4.95-1.54-6.72c-1.03-1.77-2.4-3.15-4.13-4.13-1.73-.98-3.73-1.66-6.02-2.03-2.29-.37-4.6-.56-6.93-.56h-14v26.88Z"></path><path class="cls-1" d="M2324.83,431.38h36.12v16.1h-36.12v-16.1Z"></path><path class="cls-1" d="M2471.83,431.66c0,7.47-1.03,14.35-3.08,20.65-2.05,6.3-5.06,11.74-9.03,16.31-3.97,4.57-8.87,8.14-14.7,10.71-5.83,2.57-12.53,3.85-20.09,3.85s-14.26-1.28-20.09-3.85c-5.83-2.57-10.73-6.14-14.7-10.71-3.97-4.57-6.98-10.01-9.03-16.31-2.05-6.3-3.08-13.18-3.08-20.65s1.03-14.49,3.08-20.79c2.05-6.3,5.04-11.76,8.96-16.38s8.84-8.21,14.77-10.78c5.93-2.57,12.62-3.85,20.09-3.85s14.28,1.28,20.16,3.85c5.88,2.57,10.8,6.16,14.77,10.78,3.97,4.62,6.95,10.08,8.96,16.38,2.01,6.3,3.01,13.23,3.01,20.79ZM2451.39,431.66c0-4.85-.54-9.45-1.61-13.79-1.07-4.34-2.66-8.1-4.76-11.27-2.1-3.17-4.83-5.69-8.19-7.56-3.36-1.87-7.33-2.8-11.9-2.8s-8.42.93-11.83,2.8c-3.41,1.87-6.16,4.39-8.26,7.56-2.1,3.17-3.69,6.93-4.76,11.27-1.07,4.34-1.61,8.94-1.61,13.79s.54,9.43,1.61,13.72c1.07,4.29,2.71,8.03,4.9,11.2,2.19,3.17,4.95,5.67,8.26,7.49,3.31,1.82,7.26,2.73,11.83,2.73s8.52-.91,11.83-2.73c3.31-1.82,6.04-4.32,8.19-7.49,2.15-3.17,3.73-6.91,4.76-11.2,1.03-4.29,1.54-8.87,1.54-13.72Z"></path><path class="cls-1" d="M2490.31,381.54h38.78c4.48,0,8.82.47,13.02,1.4,4.2.93,7.91,2.45,11.13,4.55,3.22,2.1,5.79,4.9,7.7,8.4,1.91,3.5,2.87,7.77,2.87,12.81,0,5.88-1.47,10.76-4.41,14.63-2.94,3.87-7.12,6.74-12.53,8.61v.28c1.59.56,2.99,1.26,4.2,2.1,1.21.84,2.29,1.94,3.22,3.29.93,1.35,1.82,3.06,2.66,5.11.84,2.05,1.68,4.71,2.52,7.98,1.59,5.04,3.13,10.1,4.62,15.19,1.49,5.09,3.03,10.29,4.62,15.61h-21.98c-.47-1.77-1-3.85-1.61-6.23-.61-2.38-1.21-4.78-1.82-7.21-.61-2.43-1.19-4.74-1.75-6.93-.56-2.19-1.07-4.13-1.54-5.81-.75-2.71-1.54-4.97-2.38-6.79-.84-1.82-1.94-3.27-3.29-4.34-1.35-1.07-3.15-1.84-5.39-2.31-2.24-.47-5.13-.7-8.68-.7h-9.52v40.32h-20.44v-99.96ZM2510.75,424.8h13.44c2.8,0,5.37-.21,7.7-.63,2.33-.42,4.36-1.14,6.09-2.17,1.73-1.03,3.06-2.4,3.99-4.13.93-1.73,1.4-3.9,1.4-6.51s-.51-4.95-1.54-6.72c-1.03-1.77-2.4-3.15-4.13-4.13-1.73-.98-3.73-1.66-6.02-2.03-2.29-.37-4.6-.56-6.93-.56h-14v26.88Z"></path><path class="cls-1" d="M2655.23,402.12c-2.8-1.68-6.3-3.08-10.5-4.2s-8.31-1.68-12.32-1.68c-5.04,0-9.66.82-13.86,2.45-4.2,1.63-7.77,3.99-10.71,7.07-2.94,3.08-5.23,6.84-6.86,11.27-1.63,4.43-2.45,9.5-2.45,15.19,0,4.76.72,9.24,2.17,13.44,1.45,4.2,3.55,7.86,6.3,10.99,2.75,3.13,6.16,5.6,10.22,7.42,4.06,1.82,8.7,2.73,13.93,2.73s9.19-.65,12.18-1.96v-24.92h-16.94v-16.38h37.24v52.64c-5.32,2.61-10.85,4.43-16.59,5.46-5.74,1.03-11.55,1.54-17.43,1.54-7.84,0-14.93-1.26-21.28-3.78-6.35-2.52-11.76-6.04-16.24-10.57-4.48-4.53-7.93-9.94-10.36-16.24-2.43-6.3-3.64-13.23-3.64-20.79s1.19-14.51,3.57-20.86c2.38-6.35,5.86-11.83,10.43-16.45,4.57-4.62,10.24-8.21,17.01-10.78,6.77-2.57,14.49-3.85,23.17-3.85,4.95,0,9.89.49,14.84,1.47,4.95.98,9.52,2.4,13.72,4.27l-5.6,16.52Z"></path><path class="cls-1" d="M2684.63,381.54h60.2v16.38h-39.76v24.36h36.54v16.38h-36.54v26.46h41.02v16.38h-61.46v-99.96Z"></path></g><g><polygon class="cls-1" points="1388.61 617.57 1388.61 544.76 1369.3 617.57 1345.41 617.57 1326.49 544.81 1326.49 617.57 1308.47 617.57 1308.47 525.89 1340.35 525.89 1357.67 598.06 1375 525.89 1407.13 525.89 1407.13 617.57 1388.61 617.57"></polygon><path class="cls-1" d="M1357.48,599.41h.38l17.53-73.02h31.24v90.68h-17.53v-75.18h-.25l-19.94,75.18h-23.11l-19.56-75.18h-.25v75.18h-17.02v-90.68h30.99l17.53,73.02Z"></path><path class="cls-1" d="M1465.81,619.09c-6.9,0-13.09-1.19-18.43-3.54-5.33-2.35-9.88-5.66-13.51-9.85-3.63-4.18-6.41-9.21-8.29-14.97-1.87-5.74-2.82-12.09-2.82-18.89s.95-13.28,2.82-19.01c1.87-5.75,4.64-10.8,8.22-15.03,3.59-4.23,8.16-7.57,13.58-9.92,5.42-2.34,11.61-3.53,18.42-3.53s13.11,1.19,18.49,3.53c5.38,2.35,9.95,5.68,13.58,9.91,3.62,4.22,6.39,9.28,8.23,15.03,1.83,5.74,2.75,12.14,2.75,19.01s-.95,13.14-2.82,18.89c-1.88,5.75-4.67,10.79-8.29,14.97-3.63,4.19-8.18,7.5-13.51,9.84-5.33,2.35-11.53,3.54-18.43,3.54ZM1465.81,540.22c-3.96,0-7.49.83-10.49,2.48-3,1.65-5.46,3.9-7.32,6.7-1.87,2.82-3.3,6.21-4.25,10.07-.96,3.88-1.45,8.05-1.45,12.39s.49,8.49,1.45,12.33c.95,3.82,2.42,7.18,4.37,10,1.93,2.8,4.4,5.03,7.32,6.64,2.92,1.6,6.44,2.42,10.49,2.42s7.57-.81,10.49-2.42c2.92-1.61,5.36-3.84,7.26-6.64,1.9-2.81,3.33-6.17,4.25-10,.92-3.84,1.38-7.99,1.38-12.33s-.49-8.5-1.45-12.39c-.96-3.86-2.39-7.25-4.25-10.07-1.85-2.8-4.29-5.05-7.26-6.7-2.96-1.64-6.51-2.48-10.55-2.48Z"></path><path class="cls-1" d="M1508.36,571.85c0,6.77-.93,13.02-2.79,18.73-1.86,5.71-4.59,10.65-8.19,14.8-3.6,4.15-8.04,7.39-13.33,9.71-5.29,2.33-11.37,3.49-18.22,3.49s-12.93-1.17-18.22-3.49c-5.29-2.33-9.74-5.57-13.33-9.71-3.6-4.15-6.33-9.08-8.19-14.8-1.86-5.71-2.79-11.96-2.79-18.73s.93-13.14,2.79-18.86c1.86-5.71,4.57-10.67,8.13-14.86,3.56-4.19,8.02-7.45,13.4-9.78,5.38-2.33,11.45-3.49,18.22-3.49s12.95,1.17,18.29,3.49c5.33,2.33,9.8,5.59,13.4,9.78,3.6,4.19,6.31,9.14,8.13,14.86,1.82,5.71,2.73,12,2.73,18.86ZM1489.82,571.85c0-4.4-.49-8.57-1.46-12.51-.97-3.94-2.41-7.34-4.32-10.22-1.91-2.88-4.38-5.16-7.43-6.86-3.05-1.69-6.65-2.54-10.8-2.54s-7.64.85-10.73,2.54c-3.09,1.69-5.59,3.98-7.49,6.86-1.91,2.88-3.35,6.29-4.32,10.22-.97,3.94-1.46,8.11-1.46,12.51s.49,8.55,1.46,12.45c.97,3.89,2.45,7.28,4.44,10.16,1.99,2.88,4.49,5.14,7.49,6.79,3,1.65,6.58,2.48,10.73,2.48s7.73-.83,10.73-2.48c3-1.65,5.48-3.92,7.43-6.79,1.95-2.88,3.39-6.26,4.32-10.16.93-3.89,1.4-8.04,1.4-12.45Z"></path><path class="cls-1" d="M1548.49,619.09c-4.15,0-8.68-.37-13.47-1.09-4.79-.72-9.58-1.9-14.25-3.51l-.42-.15,3.52-16.12.55.22c4.18,1.67,8.35,2.9,12.42,3.66,4.06.75,7.76,1.13,11.02,1.13,4.96,0,8.75-.85,11.28-2.52,2.5-1.65,3.76-4.12,3.84-7.53,0-1.59-.32-3.03-.96-4.27-.64-1.24-1.69-2.42-3.1-3.52-1.45-1.11-3.3-2.23-5.5-3.31-2.23-1.09-4.88-2.24-7.9-3.41-3.65-1.44-7.01-3.03-9.97-4.73-2.99-1.71-5.63-3.67-7.85-5.86-2.24-2.19-3.98-4.7-5.19-7.46-1.21-2.76-1.82-5.94-1.82-9.47,0-4.72.96-8.84,2.86-12.24,1.89-3.4,4.44-6.21,7.58-8.36,3.13-2.14,6.64-3.72,10.44-4.71,3.79-.98,7.66-1.48,11.49-1.48,4.39,0,8.69.28,12.77.83,4.07.55,7.82,1.39,11.14,2.5l.42.14-3.39,15.86-.54-.2c-3.18-1.17-6.44-2.02-9.68-2.51-3.26-.5-6.48-.76-9.58-.76-1.83,0-3.61.15-5.31.44-1.68.29-3.18.8-4.47,1.53-1.28.72-2.31,1.67-3.07,2.82-.75,1.14-1.12,2.6-1.12,4.36,0,1.52.32,2.87.95,4.01.64,1.17,1.65,2.29,2.98,3.34,1.36,1.08,3.13,2.15,5.24,3.18,2.14,1.05,4.71,2.18,7.65,3.35,3.73,1.52,7.16,3.13,10.21,4.79,3.07,1.66,5.8,3.61,8.11,5.79,2.32,2.2,4.12,4.77,5.32,7.66,1.21,2.89,1.82,6.39,1.82,10.42,0,4.55-.94,8.6-2.79,12.05-1.85,3.44-4.4,6.32-7.58,8.55-3.16,2.23-6.83,3.9-10.89,4.96-4.05,1.06-8.34,1.6-12.76,1.6Z"></path><path class="cls-1" d="M1573.64,543.03c-3.22-1.18-6.48-2.03-9.78-2.54s-6.52-.76-9.65-.76c-1.86,0-3.66.15-5.4.44-1.74.3-3.28.83-4.64,1.59-1.36.76-2.43,1.76-3.24,2.98-.81,1.23-1.21,2.77-1.21,4.63,0,1.61.34,3.03,1.02,4.25.68,1.23,1.71,2.39,3.11,3.49,1.4,1.1,3.17,2.18,5.33,3.24,2.16,1.06,4.72,2.18,7.68,3.37,3.72,1.52,7.11,3.11,10.16,4.76,3.05,1.65,5.71,3.56,8,5.71s4.02,4.66,5.21,7.49c1.18,2.84,1.78,6.24,1.78,10.22,0,4.49-.91,8.43-2.73,11.81-1.82,3.39-4.3,6.18-7.43,8.38-3.13,2.2-6.71,3.83-10.73,4.89-4.02,1.06-8.24,1.59-12.64,1.59-4.15,0-8.62-.36-13.4-1.08-4.78-.72-9.51-1.88-14.16-3.49l3.3-15.11c4.23,1.69,8.4,2.92,12.51,3.68,4.11.76,7.81,1.14,11.11,1.14,5.08,0,8.93-.87,11.56-2.6,2.62-1.73,3.98-4.38,4.06-7.94,0-1.69-.34-3.2-1.02-4.51-.68-1.31-1.76-2.54-3.24-3.68-1.48-1.14-3.35-2.26-5.59-3.37-2.24-1.1-4.89-2.24-7.94-3.43-3.64-1.44-6.94-3-9.91-4.7-2.96-1.69-5.55-3.62-7.75-5.78-2.2-2.16-3.9-4.59-5.08-7.3-1.19-2.71-1.78-5.8-1.78-9.27,0-4.66.93-8.66,2.79-12,1.86-3.34,4.34-6.07,7.43-8.19,3.09-2.12,6.52-3.66,10.29-4.63,3.77-.97,7.56-1.46,11.37-1.46,4.4,0,8.64.28,12.7.83,4.06.55,7.75,1.38,11.05,2.48l-3.17,14.86Z"></path><path class="cls-1" d="M1652.5,632.43l-9.5-13.81c-1.14.15-2.18.26-3.08.34-1,.09-2.11.13-3.28.13-6.9,0-13.09-1.19-18.43-3.54-5.33-2.35-9.88-5.66-13.51-9.85-3.63-4.18-6.41-9.21-8.29-14.97-1.87-5.74-2.82-12.09-2.82-18.89s.95-13.28,2.82-19.01c1.87-5.75,4.66-10.83,8.29-15.09,3.63-4.27,8.22-7.61,13.65-9.92,5.41-2.3,11.57-3.47,18.29-3.47s12.85,1.15,18.23,3.4c5.38,2.26,9.99,5.6,13.71,9.91,3.71,4.3,6.52,9.41,8.35,15.16,1.83,5.74,2.75,12.14,2.75,19.01,0,9.34-1.68,17.64-5,24.66-3.25,6.88-8.16,12.35-14.59,16.26l14.09,19.65h-21.68ZM1636.63,540.22c-3.96,0-7.49.83-10.49,2.48-3,1.65-5.46,3.9-7.32,6.7-1.87,2.82-3.3,6.21-4.25,10.07-.96,3.88-1.45,8.05-1.45,12.39s.49,8.49,1.45,12.33c.95,3.82,2.42,7.18,4.37,10,1.93,2.8,4.42,5.03,7.38,6.64,2.96,1.6,6.47,2.42,10.43,2.42s7.49-.81,10.5-2.42c3-1.6,5.48-3.86,7.38-6.69,1.9-2.86,3.33-6.22,4.25-10,.92-3.8,1.38-7.93,1.38-12.27s-.49-8.5-1.45-12.39c-.96-3.86-2.43-7.27-4.37-10.13-1.94-2.84-4.42-5.1-7.38-6.7-2.96-1.6-6.47-2.42-10.43-2.42Z"></path><path class="cls-1" d="M1679.17,571.85c0,9.31-1.65,17.46-4.95,24.45-3.3,6.99-8.26,12.43-14.86,16.32l13.84,19.3h-20.45l-9.53-13.84c-1.27.17-2.39.3-3.37.38-.97.08-2.05.13-3.24.13-6.86,0-12.93-1.17-18.22-3.49-5.29-2.33-9.74-5.57-13.33-9.71-3.6-4.15-6.33-9.08-8.19-14.8-1.86-5.71-2.79-11.96-2.79-18.73s.93-13.14,2.79-18.86c1.86-5.71,4.59-10.69,8.19-14.92,3.6-4.23,8.08-7.49,13.46-9.78,5.38-2.29,11.41-3.43,18.1-3.43s12.7,1.12,18.03,3.37c5.33,2.25,9.84,5.5,13.53,9.78,3.68,4.28,6.43,9.27,8.26,14.99,1.82,5.71,2.73,12,2.73,18.86ZM1660.76,571.85c0-4.4-.49-8.57-1.46-12.51-.97-3.94-2.46-7.37-4.45-10.29-1.99-2.92-4.51-5.21-7.56-6.86-3.05-1.65-6.6-2.48-10.67-2.48s-7.64.85-10.73,2.54c-3.09,1.69-5.59,3.98-7.49,6.86-1.91,2.88-3.35,6.29-4.32,10.22-.97,3.94-1.46,8.11-1.46,12.51s.49,8.55,1.46,12.45c.97,3.89,2.45,7.28,4.44,10.16,1.99,2.88,4.51,5.14,7.56,6.79s6.6,2.48,10.67,2.48,7.64-.83,10.73-2.48c3.09-1.65,5.61-3.94,7.56-6.86,1.95-2.92,3.39-6.31,4.32-10.16.93-3.85,1.4-7.98,1.4-12.38Z"></path><path class="cls-1" d="M1730.99,619.09c-5.18,0-10.06-.63-14.49-1.86-4.44-1.24-8.34-3.08-11.59-5.48-3.26-2.4-5.86-5.45-7.7-9.07-1.85-3.61-2.79-7.79-2.79-12.42v-64.38h19.54v62.09c.08,5.4,1.68,9.35,4.76,11.73,3.01,2.33,6.92,3.52,11.64,3.52h.49c2.49,0,4.8-.3,6.86-.87,2.04-.57,3.89-1.48,5.48-2.71,1.58-1.21,2.83-2.82,3.72-4.77.9-1.96,1.35-4.28,1.35-6.9v-62.09h19.54v64.38c0,4.63-.94,8.81-2.79,12.42-1.85,3.61-4.47,6.66-7.77,9.07-3.3,2.4-7.24,4.24-11.72,5.48-4.47,1.23-9.37,1.86-14.55,1.86Z"></path><path class="cls-1" d="M1767.31,590.27c0,4.57-.91,8.64-2.73,12.19-1.82,3.56-4.36,6.52-7.62,8.89-3.26,2.37-7.11,4.17-11.56,5.4-4.45,1.23-9.25,1.84-14.41,1.84s-9.95-.62-14.35-1.84c-4.4-1.23-8.21-3.03-11.43-5.4-3.22-2.37-5.74-5.33-7.56-8.89-1.82-3.56-2.73-7.62-2.73-12.19v-63.88h18.54v61.59c.08,5.59,1.73,9.63,4.95,12.13,3.22,2.5,7.37,3.7,12.45,3.62,2.54,0,4.87-.3,6.98-.89,2.12-.59,4-1.52,5.65-2.79,1.65-1.27,2.94-2.92,3.87-4.95.93-2.03,1.4-4.4,1.4-7.11v-61.59h18.54v63.88Z"></path><path class="cls-1" d="M1785.61,617.57v-91.68h55.61v15.86h-36.07v21.1h33.15v15.86h-33.15v23h37.21v15.86h-56.75ZM1804.49,520.66l12.72-19.42h21.37l-18.34,19.42h-15.75Z"></path><path class="cls-1" d="M1786.11,526.39h54.61v14.86h-36.07v22.1h33.15v14.86h-33.15v24h37.21v14.86h-55.75v-90.68ZM1820.02,520.16h-14.6l12.06-18.42h19.94l-17.4,18.42Z"></path><polygon class="cls-1" points="1856.6 617.57 1856.6 525.89 1912.21 525.89 1912.21 541.75 1876.14 541.75 1876.14 562.85 1909.29 562.85 1909.29 578.7 1876.14 578.7 1876.14 601.71 1913.35 601.71 1913.35 617.57 1856.6 617.57"></polygon><path class="cls-1" d="M1857.1,526.39h54.61v14.86h-36.07v22.1h33.15v14.86h-33.15v24h37.21v14.86h-55.75v-90.68Z"></path><path class="cls-1" d="M2021.73,617.57l-8.13-22.1h-34.22l-7.87,22.1h-20.75l33-91.68h26.1l32.87,91.68h-21ZM2008.93,579.48l-12.39-37.05-12.51,37.05h24.9Z"></path><path class="cls-1" d="M1971.15,617.07h-19.69l32.64-90.68h25.4l32.51,90.68h-19.94l-8.13-22.1h-34.93l-7.87,22.1ZM1983.34,579.98h26.29l-13.08-39.12-13.21,39.12Z"></path><polygon class="cls-1" points="2051.67 617.57 2051.67 525.89 2071.22 525.89 2071.22 601.71 2107.28 601.71 2107.28 617.57 2051.67 617.57"></polygon><path class="cls-1" d="M2052.17,526.39h18.54v75.82h36.07v14.86h-54.61v-90.68Z"></path><path class="cls-1" d="M2150.86,617.57v-91.68h38.35c3.99,0,7.75.43,11.17,1.28,3.43.86,6.46,2.26,9,4.15,2.55,1.91,4.57,4.36,5.99,7.29,1.42,2.94,2.15,6.51,2.15,10.63-.09,5.86-1.56,10.51-4.37,13.85-2.56,3.04-5.77,5.33-9.53,6.81,2.06.64,3.96,1.45,5.65,2.4,1.98,1.12,3.79,2.56,5.39,4.29,1.61,1.74,2.88,3.89,3.79,6.39.9,2.5,1.36,5.46,1.36,8.81s-.59,6.74-1.75,9.83c-1.17,3.11-3,5.88-5.46,8.25-2.45,2.37-5.59,4.26-9.32,5.63-3.72,1.37-8.2,2.06-13.32,2.06h-39.11ZM2184.89,601.71c2.34,0,4.47-.17,6.33-.5,1.83-.32,3.46-.92,4.84-1.78,1.35-.83,2.4-2,3.11-3.48.73-1.49,1.09-3.4,1.09-5.69s-.45-4.17-1.33-5.65c-.88-1.48-2.08-2.66-3.56-3.5-1.51-.86-3.38-1.48-5.55-1.85-2.2-.38-4.63-.57-7.22-.57h-12.2v23h14.49ZM2182.98,562.85c4.95,0,8.72-.87,11.21-2.58,2.43-1.67,3.7-4.49,3.78-8.36,0-2.09-.38-3.82-1.14-5.14-.76-1.31-1.78-2.34-3.05-3.05-1.3-.73-2.8-1.24-4.47-1.53-1.71-.29-3.49-.44-5.31-.44h-13.6v21.1h12.58Z"></path><path class="cls-1" d="M2151.36,526.39h37.85c3.98,0,7.66.42,11.05,1.27,3.39.85,6.33,2.2,8.83,4.06,2.5,1.86,4.45,4.23,5.84,7.11,1.4,2.88,2.1,6.35,2.1,10.41-.09,5.76-1.5,10.27-4.25,13.53-2.75,3.26-6.2,5.61-10.35,7.05v.25c2.45.68,4.66,1.57,6.6,2.67,1.95,1.1,3.7,2.5,5.27,4.19,1.57,1.69,2.79,3.77,3.68,6.22.89,2.46,1.33,5.33,1.33,8.64s-.57,6.6-1.71,9.65-2.92,5.74-5.33,8.06c-2.41,2.33-5.46,4.17-9.14,5.52-3.68,1.36-8.06,2.03-13.14,2.03h-38.61v-90.68ZM2169.9,563.35h13.08c5.08,0,8.91-.89,11.49-2.67,2.58-1.78,3.92-4.7,4-8.76,0-2.2-.4-4-1.21-5.4-.81-1.4-1.89-2.48-3.24-3.24-1.36-.76-2.9-1.29-4.64-1.59-1.74-.3-3.54-.45-5.4-.45h-14.1v22.1ZM2169.9,602.21h14.99c2.37,0,4.51-.17,6.41-.51,1.91-.34,3.58-.95,5.02-1.84,1.44-.89,2.54-2.12,3.3-3.68.76-1.57,1.14-3.53,1.14-5.91s-.47-4.34-1.4-5.91c-.93-1.57-2.18-2.79-3.75-3.68-1.57-.89-3.47-1.52-5.72-1.9-2.24-.38-4.68-.57-7.3-.57h-12.7v24Z"></path><path class="cls-1" d="M2295.66,617.57l-8.13-22.1h-34.22l-7.87,22.1h-20.75l33-91.68h26.1l32.87,91.68h-21ZM2282.87,579.48l-12.39-37.05-12.51,37.05h24.9Z"></path><path class="cls-1" d="M2245.09,617.07h-19.69l32.64-90.68h25.4l32.51,90.68h-19.94l-8.13-22.1h-34.93l-7.87,22.1ZM2257.28,579.98h26.29l-13.08-39.12-13.21,39.12Z"></path><path class="cls-1" d="M2376.91,617.57l-.1-.37c-.42-1.61-.91-3.5-1.46-5.66-.55-2.16-1.1-4.34-1.65-6.54-.55-2.2-1.08-4.29-1.59-6.28-.51-1.98-.97-3.74-1.39-5.26-.67-2.43-1.39-4.47-2.13-6.08-.72-1.57-1.68-2.83-2.84-3.76-1.16-.92-2.74-1.59-4.68-2-1.99-.41-4.61-.62-7.77-.62h-8.14v36.58h-19.54v-91.68h35.68c4.07,0,8.08.43,11.92,1.28,3.85.86,7.31,2.27,10.26,4.2,2.98,1.94,5.38,4.56,7.15,7.8,1.77,3.24,2.66,7.23,2.66,11.86,0,5.42-1.38,9.99-4.1,13.57-2.54,3.35-6.13,5.92-10.67,7.64,1.1.46,2.11,1,3,1.61,1.14.79,2.17,1.84,3.05,3.11.86,1.26,1.69,2.85,2.46,4.73.77,1.88,1.54,4.33,2.31,7.3,1.42,4.52,2.84,9.16,4.19,13.76,1.35,4.61,2.75,9.33,4.19,14.16l.19.64h-21ZM2356.85,565.13c2.49,0,4.81-.19,6.9-.56,2.05-.37,3.85-1.01,5.36-1.91,1.48-.88,2.64-2.08,3.44-3.56.8-1.49,1.21-3.39,1.21-5.67s-.45-4.32-1.33-5.85c-.88-1.52-2.08-2.72-3.56-3.56-1.51-.85-3.29-1.45-5.29-1.78-2.05-.33-4.14-.5-6.21-.5h-12.2v23.38h11.69Z"></path><path class="cls-1" d="M2326.11,526.39h35.18c4.06,0,8,.42,11.81,1.27,3.81.85,7.18,2.22,10.1,4.13,2.92,1.9,5.25,4.44,6.99,7.62,1.73,3.17,2.6,7.05,2.6,11.62,0,5.33-1.33,9.76-4,13.27-2.67,3.51-6.46,6.12-11.37,7.81v.25c1.44.51,2.71,1.14,3.81,1.91,1.1.76,2.07,1.76,2.92,2.98.85,1.23,1.65,2.77,2.41,4.64.76,1.86,1.52,4.28,2.29,7.24,1.44,4.57,2.84,9.17,4.19,13.78,1.35,4.62,2.75,9.33,4.19,14.16h-19.94c-.42-1.61-.91-3.49-1.46-5.65-.55-2.16-1.1-4.34-1.65-6.54-.55-2.2-1.08-4.3-1.59-6.29-.51-1.99-.97-3.75-1.4-5.27-.68-2.46-1.4-4.51-2.16-6.16-.76-1.65-1.76-2.96-2.98-3.94-1.23-.97-2.86-1.67-4.89-2.1-2.03-.42-4.66-.63-7.87-.63h-8.64v36.58h-18.54v-90.68ZM2344.65,565.63h12.19c2.54,0,4.87-.19,6.99-.57,2.12-.38,3.96-1.04,5.52-1.97,1.57-.93,2.77-2.18,3.62-3.75.85-1.57,1.27-3.53,1.27-5.91s-.47-4.49-1.4-6.1c-.93-1.61-2.18-2.86-3.75-3.75-1.57-.89-3.39-1.5-5.46-1.84-2.08-.34-4.17-.51-6.29-.51h-12.7v24.38Z"></path><path class="cls-1" d="M2469.65,617.57l-8.13-22.1h-34.22l-7.87,22.1h-20.75l33-91.68h26.1l32.87,91.68h-21ZM2456.86,579.48l-12.39-37.05-12.51,37.05h24.9Z"></path><path class="cls-1" d="M2419.08,617.07h-19.69l32.64-90.68h25.4l32.51,90.68h-19.94l-8.13-22.1h-34.93l-7.87,22.1ZM2431.27,579.98h26.29l-13.08-39.12-13.21,39.12Z"></path><polygon class="cls-1" points="2549.37 617.57 2519.14 573.23 2519.14 617.57 2499.6 617.57 2499.6 525.89 2519.14 525.89 2519.14 567.71 2548.48 525.89 2571.83 525.89 2539.2 570.21 2573.47 617.57 2549.37 617.57"></polygon><path class="cls-1" d="M2570.84,526.39l-32.26,43.81,33.91,46.86h-22.86l-30.73-45.08h-.25v45.08h-18.54v-90.68h18.54v42.54h.25l29.85-42.54h22.1Z"></path><path class="cls-1" d="M2643.26,617.57l-8.13-22.1h-34.22l-7.87,22.1h-20.75l33-91.68h26.1l32.87,91.68h-21ZM2630.47,579.48l-12.39-37.05-12.51,37.05h24.9Z"></path><path class="cls-1" d="M2592.69,617.07h-19.69l32.64-90.68h25.4l32.51,90.68h-19.94l-8.13-22.1h-34.93l-7.87,22.1ZM2604.88,579.98h26.29l-13.08-39.12-13.21,39.12Z"></path><polygon class="cls-1" points="2726.55 617.57 2726.55 578.7 2692.75 578.7 2692.75 617.57 2673.21 617.57 2673.21 525.89 2692.75 525.89 2692.75 562.85 2726.55 562.85 2726.55 525.89 2746.09 525.89 2746.09 617.57 2726.55 617.57"></polygon><path class="cls-1" d="M2673.71,526.39h18.54v36.96h34.8v-36.96h18.54v90.68h-18.54v-38.86h-34.8v38.86h-18.54v-90.68Z"></path></g></g></svg>