<svg xmlns="http://www.w3.org/2000/svg" xmlns:xlink="http://www.w3.org/1999/xlink" id="Calque_4" width="2000" height="2000" viewBox="0 0 2000 2000"><defs><style>      .cls-1 {        fill: #fff;      }      .cls-2 {        fill: url(#Dégradé_sans_nom_71);      }    </style><linearGradient id="D&#xE9;grad&#xE9;_sans_nom_71" data-name="D&#xE9;grad&#xE9; sans nom 71" x1="0" y1="1000" x2="2000" y2="1000" gradientUnits="userSpaceOnUse"><stop offset="0" stop-color="#4f964e"></stop><stop offset="1" stop-color="#5e9f5d"></stop></linearGradient></defs><path class="cls-1" d="M531.71,1320.68v-104.98h9.19c7.87,0,14.24-6.38,14.24-14.24s-6.38-14.24-14.24-14.24h-9.19v-83.15h9.19c7.87,0,14.24-6.38,14.24-14.24s-6.28-14.13-14.06-14.23c4.68-5.88,12.11-17.68,12.02-33.63-.1-17.51-9.2-29.65-11.98-33.36-8.44-11.27-14.7-10.42-24.39-21.04-9-9.87-13.49-21.44-15.83-29.26-2.34,7.82-6.83,19.39-15.83,29.26-9.69,10.63-15.95,9.78-24.39,21.04-2.78,3.71-11.88,15.86-11.98,33.36-.09,15.95,7.34,27.75,12.02,33.63-7.78.1-14.06,6.43-14.06,14.23s6.38,14.24,14.24,14.24h9.19v83.15h-9.19c-7.87,0-14.24,6.38-14.24,14.24s6.38,14.24,14.24,14.24h9.19v26.7c5.57,8.33,11.27,16.57,17.09,24.76v-11.48c0-6.97,6.14-12.62,13.72-12.62s13.72,5.65,13.72,12.62v45.89h-1.86c26.7,34.41,55.72,67.37,87.02,98.67,31.84,31.84,65.41,61.33,100.47,88.41,10.04-11.03,16.04-23.2,19.59-32.04,3.89,9.67,10.68,23.32,22.51,35.11,12.56,12.51,18.86,11.05,28.89,23.65,2.88,3.62,12.77,16.06,15.32,33.2,96.87,60.15,202.78,103.51,314.08,128.57v-107.22l9.37-10.17c-4.59-5.98-12.84-18.53-14.72-36.39-3.33-31.58,15.79-55.59,20.52-61.53,13.17-16.54,21.44-14.61,37.92-31.03,15.52-15.47,24.44-33.39,29.54-46.08,5.1,12.69,14.02,30.61,29.54,46.08,16.48,16.42,24.76,14.5,37.92,31.03,4.73,5.94,23.85,29.96,20.52,61.53-1.88,17.86-10.13,30.41-14.72,36.39,3.12,3.39,6.25,6.78,9.37,10.17v130.59c21.01,1.26,42.14,1.91,63.37,1.91,86.97,0,172.29-10.7,254.47-31.46v-73.23c2.38-2.58,4.76-5.16,7.14-7.75-3.5-4.56-9.78-14.12-11.22-27.72-2.54-24.06,12.03-42.36,15.64-46.88,10.03-12.6,16.34-11.13,28.89-23.65,11.83-11.79,18.62-25.44,22.51-35.11,3.89,9.67,10.68,23.32,22.51,35.11,12.55,12.51,18.86,11.05,28.89,23.65,3.6,4.53,18.17,22.82,15.64,46.88-1.43,13.61-7.72,23.17-11.22,27.72,2.38,2.58,4.76,5.16,7.14,7.75v32.6c65.27-25.86,127.82-58.45,186.79-97.41v-317.21h9.19c7.87,0,14.24-6.38,14.24-14.24s-6.38-14.24-14.24-14.24h-9.19v-83.15h9.19c7.87,0,14.24-6.38,14.24-14.24s-6.28-14.13-14.06-14.23c4.68-5.88,12.11-17.68,12.02-33.63-.1-17.51-9.2-29.65-11.98-33.36-8.44-11.27-14.7-10.42-24.39-21.04-9-9.87-13.49-21.44-15.83-29.26-2.34,7.82-6.83,19.39-15.83,29.26-9.69,10.63-15.95,9.78-24.39,21.04-2.78,3.71-11.88,15.86-11.98,33.36-.09,15.95,7.34,27.75,12.02,33.63-7.78.1-14.06,6.43-14.06,14.23s6.38,14.24,14.24,14.24h9.19v83.15h-9.19c-7.87,0-14.24,6.38-14.24,14.24s6.38,14.24,14.24,14.24h9.19v104.98c-7.28-11.69-17.24-21.52-29.03-28.64-13.23-68.13-69.13-121.03-138.77-129.74v-9.94c0-10.32-7.7-18.83-17.66-20.13l-.37-10.53c3.13-.66,5.49-3.44,5.49-6.77,0-3.5-2.6-6.36-5.97-6.83l-1.81-51.08-1.81,51.08c-3.37.47-5.97,3.34-5.97,6.83s2.35,6.11,5.49,6.77l-.37,10.53c-9.96,1.31-17.66,9.81-17.66,20.13v9.94c-69.64,8.71-125.54,61.61-138.77,129.74-11.76,7.09-21.69,16.89-28.96,28.52v-155.68c0-32.07-17.37-60.07-43.2-75.16-14.51-107.88-102.43-192.48-211.85-201.89v-9.82c0-10.27-7.62-18.73-17.51-20.11l-.47-20.07c3.1-.69,5.42-3.45,5.42-6.75s-2.48-6.24-5.74-6.81l-2.04-87.46-2.04,87.46c-3.26.57-5.74,3.39-5.74,6.81s2.32,6.07,5.42,6.75l-.47,20.07c-9.89,1.37-17.51,9.84-17.51,20.11v9.82c-109.42,9.41-197.34,94-211.85,201.89-25.83,15.09-43.2,43.09-43.2,75.16v155.68c-7.27-11.63-17.2-21.43-28.96-28.52-13.23-68.13-69.13-121.03-138.77-129.74v-9.94c0-10.32-7.7-18.83-17.66-20.13l-.37-10.53c3.13-.66,5.48-3.44,5.48-6.77,0-3.5-2.6-6.36-5.97-6.83l-1.81-51.08-1.81,51.08c-3.37.47-5.97,3.34-5.97,6.83s2.35,6.11,5.48,6.77l-.37,10.53c-9.97,1.31-17.67,9.81-17.67,20.13v9.94c-69.64,8.71-125.54,61.61-138.77,129.74-11.8,7.11-21.76,16.95-29.03,28.64ZM514.61,1175.3h-27.44v-45.89c0-6.97,6.14-12.62,13.72-12.62s13.72,5.65,13.72,12.62v45.89ZM1851.93,1129.41c0-6.97,6.14-12.62,13.72-12.62s13.72,5.65,13.72,12.62v45.89h-27.44v-45.89ZM1851.93,1255.67c0-6.97,6.14-12.62,13.72-12.62s13.72,5.65,13.72,12.62v45.89h-27.44v-45.89ZM1691.49,1314.78c0-11.55,10.18-20.92,22.74-20.92s22.74,9.37,22.74,20.92v76.07h-45.49v-76.07ZM1556.44,1314.78c0-11.55,10.18-20.92,22.74-20.92s22.74,9.37,22.74,20.92v76.07h-45.49v-76.07ZM1290.31,1169.79c0-17.36,15.3-31.44,34.18-31.44s34.18,14.08,34.18,31.44v114.33h-68.36v-114.33ZM1149.09,1169.79c0-17.36,15.3-31.44,34.18-31.44s34.18,14.08,34.18,31.44v114.33h-68.36v-114.33ZM1007.87,1169.79c0-17.36,15.3-31.44,34.18-31.44s34.18,14.08,34.18,31.44v114.33h-68.36v-114.33ZM764.61,1314.78c0-11.55,10.18-20.92,22.74-20.92s22.74,9.37,22.74,20.92v76.07h-45.49v-76.07ZM629.57,1314.78c0-11.55,10.18-20.92,22.74-20.92s22.74,9.37,22.74,20.92v76.07h-45.49v-76.07Z"></path><path class="cls-2" d="M1068.99,2000c-138.87,0-274.23-26.33-402.3-78.27-132.56-53.75-251.52-132.76-353.59-234.83s-181.08-221.03-234.83-353.59C26.33,1205.23,0,1069.88,0,931.01s26.33-274.23,78.27-402.3c53.75-132.56,132.76-251.52,234.83-353.59C382.17,106.04,459.23,47.39,543.04,0c-170.6,189.59-263.93,432.23-263.93,689.2,0,275.57,107.31,534.65,302.17,729.51s453.94,302.17,729.51,302.17c256.97,0,499.61-93.33,689.2-263.93-47.39,83.81-106.04,160.87-175.12,229.94-102.07,102.07-221.03,181.08-353.59,234.83-128.07,51.94-263.43,78.27-402.3,78.27Z"></path></svg>